<?xml version="1.0" encoding="iso-8859-1"?>
<!-- Generator: Adobe Illustrator 19.0.0, SVG Export Plug-In . SVG Version: 6.00 Build 0)  -->
<svg version="1.1" id="Capa_1" xmlns="http://www.w3.org/2000/svg" xmlns:xlink="http://www.w3.org/1999/xlink" x="0px" y="0px"
	 viewBox="0 0 512 512" style="enable-background:new 0 0 512 512;" xml:space="preserve">
<path style="fill:#303C42;" d="M458.667,0C396.76,0,261.052,107.865,184.458,184.458S0,396.76,0,458.667
	C0,488.073,23.927,512,53.333,512c61.906,0,197.615-107.865,274.208-184.458S512,115.24,512,53.333C512,23.927,488.073,0,458.667,0z
	"/>
<path style="fill:#F9A825;" d="M312.458,312.458C226.396,398.521,101.74,490.667,53.333,490.667c-17.646,0-32-14.354-32-32
	c0-48.406,92.146-173.063,178.208-259.125S410.26,21.333,458.667,21.333c17.646,0,32,14.354,32,32
	C490.667,101.74,398.521,226.396,312.458,312.458z"/>
<path style="opacity:0.5;fill:#BCAAA4;enable-background:new    ;" d="M312.458,312.458
	C226.396,398.521,101.74,490.667,53.333,490.667c-17.646,0-32-14.354-32-32c0-48.406,92.146-173.063,178.208-259.125
	S410.26,21.333,458.667,21.333c17.646,0,32,14.354,32,32C490.667,101.74,398.521,226.396,312.458,312.458z"/>
<path style="opacity:0.1;enable-background:new    ;" d="M478.142,28.124c-37.936,71.51-116.768,171.053-191.975,246.319
	c-80.505,80.569-188.81,165.313-260.772,199.507c5.445,9.909,15.857,16.717,27.939,16.717c48.406,0,173.063-92.146,259.125-178.208
	S490.667,101.74,490.667,53.333C490.667,43.048,485.704,33.982,478.142,28.124z"/>
<g>
	<path style="fill:#303C42;" d="M266.375,253.51c-2.573-10.708-5.76-24.042-25.5-38.177c-4.792-3.448-11.448-2.313-14.875,2.458
		c-3.438,4.781-2.333,11.448,2.458,14.875c13.26,9.51,14.896,16.354,17.167,25.823c2.573,10.708,5.76,24.042,25.5,38.177
		c1.875,1.354,4.052,2,6.198,2c3.323,0,6.594-1.552,8.677-4.458c3.438-4.781,2.333-11.448-2.458-14.875
		C270.281,269.823,268.646,262.979,266.375,253.51z"/>
	<path style="fill:#303C42;" d="M138.375,381.51c-2.573-10.708-5.76-24.042-25.5-38.177c-4.771-3.438-11.438-2.323-14.875,2.458
		s-2.333,11.448,2.458,14.875c13.26,9.51,14.896,16.354,17.167,25.823c2.573,10.708,5.76,24.042,25.5,38.177
		c1.875,1.354,4.052,2,6.198,2c3.323,0,6.594-1.552,8.677-4.458c3.438-4.781,2.333-11.448-2.458-14.875
		C142.281,397.823,140.646,390.979,138.375,381.51z"/>
	<path style="fill:#303C42;" d="M202.375,317.51c-2.573-10.708-5.76-24.042-25.5-38.177c-4.771-3.448-11.438-2.333-14.875,2.458
		c-3.438,4.781-2.333,11.448,2.458,14.875c13.26,9.51,14.896,16.354,17.167,25.823c2.573,10.708,5.76,24.042,25.5,38.177
		c1.875,1.354,4.052,2,6.198,2c3.323,0,6.594-1.552,8.677-4.458c3.438-4.781,2.333-11.448-2.458-14.875
		C206.281,333.823,204.646,326.979,202.375,317.51z"/>
	<path style="fill:#303C42;" d="M394.375,125.51c-2.573-10.708-5.76-24.042-25.5-38.177c-4.781-3.458-11.448-2.323-14.875,2.458
		c-3.438,4.781-2.333,11.448,2.458,14.875c13.26,9.51,14.896,16.354,17.167,25.823c2.573,10.708,5.76,24.042,25.5,38.177
		c1.875,1.354,4.052,2,6.198,2c3.323,0,6.594-1.552,8.677-4.458c3.438-4.781,2.333-11.448-2.458-14.875
		C398.281,141.823,396.646,134.979,394.375,125.51z"/>
	<path style="fill:#303C42;" d="M330.375,189.51c-2.573-10.708-5.76-24.042-25.5-38.177c-4.781-3.458-11.448-2.323-14.875,2.458
		c-3.438,4.781-2.333,11.448,2.458,14.875c13.26,9.51,14.896,16.354,17.167,25.823c2.573,10.708,5.76,24.042,25.5,38.177
		c1.875,1.354,4.052,2,6.198,2c3.323,0,6.594-1.552,8.677-4.458c3.438-4.781,2.333-11.448-2.458-14.875
		C334.281,205.823,332.646,198.979,330.375,189.51z"/>
</g>
<linearGradient id="SVGID_1_" gradientUnits="userSpaceOnUse" x1="-41.28" y1="637.5486" x2="-28.1263" y2="631.4201" gradientTransform="matrix(21.3333 0 0 -21.3333 996.3334 13791.667)">
	<stop  offset="0" style="stop-color:#FFFFFF;stop-opacity:0.2"/>
	<stop  offset="1" style="stop-color:#FFFFFF;stop-opacity:0"/>
</linearGradient>
<path style="fill:url(#SVGID_1_);" d="M458.667,0C396.76,0,261.052,107.865,184.458,184.458S0,396.76,0,458.667
	C0,488.073,23.927,512,53.333,512c61.906,0,197.615-107.865,274.208-184.458S512,115.24,512,53.333C512,23.927,488.073,0,458.667,0z
	"/>
<g>
</g>
<g>
</g>
<g>
</g>
<g>
</g>
<g>
</g>
<g>
</g>
<g>
</g>
<g>
</g>
<g>
</g>
<g>
</g>
<g>
</g>
<g>
</g>
<g>
</g>
<g>
</g>
<g>
</g>
</svg>
