<svg id="Capa_1" enable-background="new 0 0 511.931 511.931" height="512" viewBox="0 0 511.931 511.931" width="512" xmlns="http://www.w3.org/2000/svg"><g><g><path d="m411.973 329.855 80.007-8.21v76.201c0 21.394-17.343 38.738-38.738 38.738-12.829 0-25.029-6.217-32.024-16.971-8.444-12.98-18.375-24.9-29.557-35.528z" fill="#ffa95f"/><path d="m99.958 329.855-80.007-8.21v76.201c0 21.394 17.343 38.738 38.738 38.738 12.829 0 25.029-6.217 32.024-16.971 8.444-12.98 18.375-24.9 29.557-35.528z" fill="#ffa95f"/><path d="m45.605 434.159c4.104 1.481 8.468 2.425 13.084 2.425 12.829 0 25.029-6.217 32.024-16.971 8.444-12.98 18.375-24.9 29.557-35.528l-12.362-33.006c-26.622 22.44-48.054 50.811-62.303 83.08z" fill="#ff8b5a"/><path d="m404.014 351.106-12.352 32.98c11.182 10.627 21.113 22.548 29.557 35.528 6.996 10.753 19.196 16.971 32.024 16.971 4.603 0 8.955-.942 13.05-2.414-14.244-32.264-35.668-60.627-62.279-83.065z" fill="#ff8b5a"/><path d="m461.233 247.756s25.696 19.867 41.024 53.005c5.314 11.488.714 25.183-10.276 31.463l-97.053 54.976c-13.816-13.742-29.671-25.419-47.053-34.603z" fill="#ffc269"/><path d="m50.698 247.756s-25.696 19.867-41.024 53.005c-5.314 11.488-.714 25.183 10.276 31.463l97.053 54.976c13.816-13.742 29.671-25.419 47.053-34.603z" fill="#ffc269"/><path d="m373.199 329.176-25.324 23.421c17.381 9.183 33.237 20.861 47.053 34.603l29.452-16.683c-14.956-16.101-32.18-30.049-51.181-41.341z" fill="#ffa95f"/><path d="m87.527 370.502 29.477 16.697c13.816-13.742 29.671-25.419 47.053-34.603l-25.339-23.435c-19.005 11.292-36.233 25.241-51.191 41.341z" fill="#ffa95f"/><path d="m387.343 149.237s67.062 38.502 86.701 82.574c3.438 7.717.611 16.753-6.654 21.066-24.696 14.663-81.728 53.549-102.814 109.621-16.031-10.611-33.702-18.925-52.554-24.509l9.641-139.492z" fill="#ffe07d"/><path d="m124.587 149.237s-67.062 38.502-86.701 82.574c-3.439 7.717-.611 16.753 6.654 21.066 24.696 14.663 81.728 53.549 102.814 109.621 16.03-10.611 33.702-18.925 52.554-24.509l-9.641-139.492z" fill="#ffe07d"/><g fill="#ffc269"><path d="m396.815 134.643c-35.771-36.582-85.663-59.295-140.869-59.295s-105.098 22.712-140.869 59.295c-6.507 6.654-5.789 17.401 1.152 23.602 40.393 36.081 65.828 88.557 65.828 146.981 0 14.026-1.631 27.647-4.419 40.843 24.006-10.411 50.475-16.213 78.308-16.213s54.302 5.802 78.308 16.213c-2.788-13.195-4.419-26.817-4.419-40.843 0-58.424 25.435-110.9 65.828-146.981 6.941-6.201 7.659-16.948 1.152-23.602z"/><path d="m314.336 304.52-2.313 33.468c18.852 5.585 36.523 13.899 52.554 24.509 3.909-10.394 9.062-20.19 15.006-29.358-19.882-12.713-41.821-22.484-65.247-28.619z"/><path d="m147.354 362.497c16.03-10.611 33.702-18.925 52.554-24.509l-2.314-33.479c-23.43 6.131-45.371 15.901-65.256 28.613 5.948 9.173 11.105 18.975 15.016 29.375z"/></g><path d="m181.942 309.261c-.281 12.601-1.784 24.887-4.303 36.807 24.006-10.411 50.475-16.213 78.308-16.213s54.302 5.802 78.308 16.213c-2.519-11.921-4.023-24.207-4.303-36.807-23.231-7.898-48.103-12.245-74.005-12.245s-50.775 4.347-74.005 12.245z" fill="#ffa95f"/></g><path d="m509.064 297.612c-11.533-24.935-24.419-38.505-31.034-44.353 5.221-6.833 6.564-16.2 2.865-24.501-17.45-39.16-60.002-66.814-73.534-74.854.852-2.357 1.347-4.846 1.432-7.376.218-6.459-2.131-12.542-6.615-17.128-38.812-39.692-90.745-61.552-146.231-61.552s-107.42 21.86-146.231 61.552c-4.484 4.586-6.833 10.669-6.615 17.129.086 2.536.582 5.031 1.439 7.394-13.566 8.064-56.066 35.706-73.502 74.836-3.699 8.301-2.356 17.669 2.865 24.501-6.615 5.847-19.5 19.418-31.034 44.353-6.228 13.466-1.985 29.571 9.583 38.587v61.647c0 25.496 20.742 46.238 46.238 46.238 15.688 0 30.009-7.619 38.311-20.38 7.122-10.948 16.065-21.912 25.293-31.187 8.927-8.879 18.704-16.83 29.201-23.765 9.251-6.124 18.991-11.411 29.128-15.802 23.86-10.347 49.202-15.594 75.324-15.594s51.464 5.247 75.324 15.594c10.149 4.395 19.906 9.673 29.167 15.802 10.497 6.935 20.274 14.886 29.201 23.765 9.514 9.465 17.989 19.959 25.293 31.187 8.302 12.762 22.624 20.38 38.311 20.38 25.496 0 46.238-20.742 46.238-46.238v-61.644c11.563-9.004 15.814-25.118 9.583-38.591zm-13.615 6.297c3.63 7.848.472 17.425-7.166 21.789l-92.174 52.212c-7.005-6.589-14.474-12.648-22.333-18.177 20.343-47.576 67.445-81.789 92.05-97.121 2.9 2.231 17.027 14.065 29.623 41.297zm-411.023 111.615c-5.524 8.491-15.146 13.56-25.738 13.56-17.225 0-31.238-14.013-31.238-31.238v-52.754l77.538 43.921c-7.562 8.267-14.461 17.132-20.562 26.511zm31.395-37.614-92.149-52.198c-7.662-4.378-10.82-13.955-7.19-21.802 12.576-27.189 26.646-39.003 29.626-41.297 14.636 9.125 37.745 25.261 58.211 47.091 1.477 1.575 3.472 2.371 5.473 2.37 1.838 0 3.681-.672 5.128-2.029 3.022-2.833 3.175-7.579.342-10.601-24.47-26.101-52.414-44.42-66.894-53.016-3.96-2.351-5.521-7.323-3.631-11.564 9.494-21.306 28.171-39.158 42.167-50.383 11.737-9.412 22.25-15.873 26.693-18.473 38.774 35.835 60.959 86.382 60.959 139.218 0 11.537-1.193 23.499-3.525 35.609-6.897 3.15-13.628 6.663-20.144 10.572-3.556-7.918-7.908-15.795-12.993-23.511-2.279-3.459-6.932-4.415-10.389-2.135-3.458 2.279-4.415 6.931-2.136 10.389 5.115 7.762 9.389 15.674 12.777 23.588-7.855 5.528-15.322 11.585-22.325 18.172zm71.568-43.751c1.44-9.803 2.168-19.491 2.168-28.934 0-58.173-24.906-113.784-68.331-152.574-1.907-1.704-3.05-4.12-3.135-6.63-.079-2.327.756-4.506 2.349-6.135 35.966-36.782 84.09-57.039 135.507-57.039s99.541 20.257 135.507 57.039c1.593 1.629 2.427 3.808 2.348 6.135-.084 2.51-1.227 4.926-3.134 6.63-5.219 4.662-10.256 9.647-14.972 14.819-2.791 3.061-2.572 7.804.489 10.595s7.804 2.573 10.595-.489c3.657-4.01 7.53-7.888 11.529-11.583 10.18 5.958 52.671 32.483 68.885 68.869 1.89 4.242.329 9.213-3.632 11.564-23.327 13.85-78.229 50.898-102.519 104.978-6.531-3.917-13.272-7.451-20.188-10.601-2.328-12.1-3.519-24.052-3.519-35.579 0-35.68 9.969-70.438 28.828-100.517 2.2-3.509 1.139-8.138-2.37-10.338-3.511-2.201-8.139-1.14-10.338 2.37-20.359 32.469-31.12 69.983-31.12 108.485 0 9.443.728 19.131 2.168 28.934-21.97-7.839-44.971-11.804-68.557-11.804-23.588.001-46.589 3.966-68.558 11.805zm265.853 94.925c-10.592 0-20.214-5.069-25.738-13.56-6.1-9.378-12.994-18.247-20.551-26.518l77.527-43.915v52.755c0 17.225-14.013 31.238-31.238 31.238z"/></g></svg>