<svg id="Layer_1" enable-background="new 0 0 62 62" height="512" viewBox="0 0 62 62" width="512" xmlns="http://www.w3.org/2000/svg"><path id="XMLID_6_" d="m42.719 35.487v6.903h15.193c1.705 0 3.088-1.472 3.088-3.287l-.013-3.615h-18.268z" fill="#8faee9"/><path id="XMLID_7_" d="m60.97 30.568-7.015-8.374c-.566-.539-1.299-.837-2.058-.837h-9.178v14.13h18.269z" fill="#a8dcff"/><path id="XMLID_5_" d="m13.457 33.908-.558 8.544h29.82v-8.544z" fill="#fff"/><path id="XMLID_15_" d="m42.719 35.487h3v6.903h-3z" fill="#789ad9"/><path id="XMLID_19_" d="m42.719 33.743v-15.83c0-1.057-.837-1.913-1.87-1.913h-24.477c-1.033 0-1.87.857-1.87 1.913l-1.045 15.995h29.262z" fill="#e4eff7"/><path id="XMLID_20_" d="m40.849 16h-4c1.033 0 1.87.857 1.87 1.913v15.995h4v-15.995c0-1.056-.837-1.913-1.87-1.913z" fill="#d1dee9"/><path id="XMLID_4_" d="m51.646 32.66h-4.385c-.553 0-1-.447-1-1v-6.112c0-.553.447-1 1-1s1 .447 1 1v5.112h3.385c.553 0 1 .447 1 1s-.448 1-1 1z" fill="#75b6e9"/><ellipse cx="50.645" cy="42.452" fill="#cfd7e7" rx="3.467" ry="3.548"/><path id="XMLID_24_" d="m50.178 42.452c0-1.407.807-2.612 1.967-3.186-.456-.225-.96-.362-1.5-.362-1.915 0-3.467 1.589-3.467 3.548 0 1.96 1.552 3.548 3.467 3.548.54 0 1.044-.137 1.5-.362-1.16-.574-1.967-1.779-1.967-3.186z" fill="#a6b2c9"/><ellipse cx="19.103" cy="42.452" fill="#cfd7e7" rx="3.467" ry="3.548"/><path id="XMLID_28_" d="m18.636 42.452c0-1.407.807-2.612 1.967-3.186-.456-.225-.96-.362-1.5-.362-1.915 0-3.467 1.589-3.467 3.548 0 1.96 1.552 3.548 3.467 3.548.54 0 1.044-.137 1.5-.362-1.16-.574-1.967-1.779-1.967-3.186z" fill="#a6b2c9"/><g fill="#5281b1"><path id="XMLID_8_" d="m61.97 30.564c-.001-.233-.083-.459-.233-.639l-7.015-8.374c-.024-.028-.05-.056-.077-.082-.754-.717-1.729-1.112-2.748-1.112h-8.178v-2.444c0-1.606-1.287-2.913-2.869-2.913h-24.478c-1.583 0-2.87 1.307-2.868 2.848l-1.604 24.539c-.036.563.431 1.065.998 1.065h1.854c.45 2.027 2.226 3.548 4.35 3.548 2.125 0 3.901-1.521 4.351-3.548l22.823-.063c.426 2.059 2.222 3.61 4.369 3.61s3.943-1.551 4.369-3.61h2.898c2.254 0 4.088-1.924 4.088-4.292zm-10.074-8.207c.486 0 .957.187 1.332.526l6.742 8.05.013 3.553h-16.264v-12.129zm-35.524-5.357h24.478c.479 0 .869.409.869.913v14.995h-27.196l.979-14.995c0-.504.391-.913.87-.913zm-1.979 17.908h27.326v6.544h-18.265c-.45-2.027-2.226-3.549-4.351-3.549s-3.9 1.522-4.35 3.549h-.787zm4.71 10.092c-1.36 0-2.467-1.143-2.467-2.548s1.106-2.549 2.467-2.549 2.468 1.144 2.468 2.549-1.108 2.548-2.468 2.548zm31.543 0c-1.36 0-2.467-1.143-2.467-2.548s1.106-2.549 2.467-2.549 2.467 1.144 2.467 2.549-1.107 2.548-2.467 2.548zm7.266-3.61h-2.936c-.473-1.995-2.229-3.486-4.331-3.486s-3.858 1.492-4.331 3.486h-2.596v-4.903h16.272l.01 2.615c0 1.261-.937 2.288-2.088 2.288z"/><path id="XMLID_14_" d="m9.171 26.761h-6.372c-.553 0-1-.447-1-1s.447-1 1-1h6.372c.553 0 1 .447 1 1s-.447 1-1 1z"/><path id="XMLID_32_" d="m10.97 31.849h-9.97c-.553 0-1-.447-1-1s.447-1 1-1h9.97c.553 0 1 .447 1 1s-.448 1-1 1z"/><path id="XMLID_33_" d="m10.97 21.673h-9.97c-.553 0-1-.447-1-1s.447-1 1-1h9.97c.553 0 1 .447 1 1s-.448 1-1 1z"/></g></svg>