<?xml version="1.0" encoding="iso-8859-1"?>
<!-- Generator: Adobe Illustrator 19.0.0, SVG Export Plug-In . SVG Version: 6.00 Build 0)  -->
<svg version="1.1" id="Capa_1" xmlns="http://www.w3.org/2000/svg" xmlns:xlink="http://www.w3.org/1999/xlink" x="0px" y="0px"
	 viewBox="0 0 512 512" style="enable-background:new 0 0 512 512;" xml:space="preserve">
<g>
	<path style="fill:#1D1D1B;" d="M453.76,255.6c0,8.88-7.12,16-16,16.08c-8.8,0-16-7.2-16-16c0-8.88,7.12-16,15.92-16
		C446.56,239.6,453.76,246.8,453.76,255.6z"/>
	<path style="fill:#1D1D1B;" d="M433.919,296.56c8.4,2.72,13.04,11.76,10.32,20.16c-2.16,6.8-8.48,11.12-15.2,11.12
		c-1.68,0-3.28-0.32-4.96-0.8c-8.4-2.72-12.96-11.76-10.32-20.16C416.479,298.48,425.52,293.84,433.919,296.56z"/>
	<path style="fill:#1D1D1B;" d="M443.999,194.56c2.72,8.4-1.84,17.44-10.24,20.16c-1.6,0.56-3.28,0.8-4.96,0.8
		c-6.72,0-13.04-4.32-15.2-11.04c-2.72-8.4,1.84-17.44,10.24-20.16C432.239,181.6,441.28,186.16,443.999,194.56z"/>
	<path style="fill:#1D1D1B;" d="M256,0c141.2,0,256,114.8,256,256S397.2,512,256,512S0,397.2,0,256S114.8,0,256,0z M480,256
		c0-123.52-100.48-224-224-224S32,132.48,32,256s100.48,224,224,224S480,379.52,480,256z"/>
	<path style="fill:#1D1D1B;" d="M412.639,349.52c7.2,5.2,8.8,15.2,3.6,22.32c-3.12,4.32-8,6.64-12.96,6.64
		c-3.28,0-6.56-0.96-9.36-3.04c-7.2-5.2-8.72-15.2-3.6-22.32C395.519,345.92,405.519,344.32,412.639,349.52z"/>
	<path style="fill:#1D1D1B;" d="M415.839,139.52c5.2,7.12,3.6,17.12-3.52,22.32c-2.88,2.08-6.16,3.12-9.44,3.12
		c-4.88,0-9.76-2.32-12.88-6.56c-5.28-7.12-3.68-17.2,3.44-22.4C400.559,130.8,410.56,132.4,415.839,139.52z"/>
	<path style="fill:#1D1D1B;" d="M376.16,393.36c5.2,7.12,3.6,17.12-3.52,22.32c-2.8,2.08-6.16,3.12-9.44,3.12
		c-4.88,0-9.76-2.32-12.88-6.56c-5.28-7.12-3.68-17.12,3.44-22.4C360.88,384.64,370.879,386.24,376.16,393.36z"/>
	<path style="fill:#1D1D1B;" d="M371.999,95.84c7.2,5.2,8.8,15.2,3.6,22.4c-3.12,4.24-8,6.56-12.96,6.56
		c-3.28,0-6.56-0.96-9.36-3.04c-7.2-5.2-8.8-15.2-3.6-22.32C354.879,92.24,364.879,90.64,371.999,95.84z"/>
	<path style="fill:#1D1D1B;" d="M327.839,423.76c2.8,8.4-1.84,17.44-10.24,20.16c-1.6,0.56-3.28,0.8-4.96,0.8
		c-6.72,0-12.96-4.24-15.2-10.96c-2.72-8.4,1.84-17.44,10.24-20.24C316.079,410.8,325.12,415.36,327.839,423.76z"/>
	<path style="fill:#1D1D1B;" d="M316.88,67.84c8.4,2.72,13.04,11.68,10.32,20.08c-2.16,6.8-8.48,11.12-15.2,11.12
		c-1.68,0-3.28-0.24-4.96-0.8c-8.4-2.72-13.04-11.76-10.32-20.16C299.44,69.679,308.48,65.12,316.88,67.84z"/>
	<path style="fill:#1D1D1B;" d="M330.56,213.2c0,8.8-7.12,16-16,16c-8.8,0-16-7.2-16-16c0-9.52-10.4-19.76-26.56-24v52.24
		c33.44,5.76,58.56,29.28,58.56,57.36c0,28.32-24.72,51.2-58.56,56.8V366c0,8.88-7.2,16-16,16c-8.8,0-16-7.12-16-16v-10.4
		c-33.84-5.6-58.56-28.48-58.56-56.8c0-8.8,7.12-16,16-16c8.8,0,16,7.2,16,16c0,9.52,10.4,19.76,26.56,24v-52.16
		c-33.44-5.84-58.56-29.36-58.56-57.44c0-28.24,24.72-51.2,58.56-56.8v-10.4c0-8.88,7.2-16,16-16c8.8,0,16,7.12,16,16v10.4
		C305.84,162,330.56,184.96,330.56,213.2z M298.56,298.8c0-9.76-10.4-20.24-26.56-24.64v48.64
		C288.16,318.56,298.56,308.32,298.56,298.8z M240,237.84V189.2c-16.16,4.24-26.56,14.48-26.56,24
		C213.44,222.96,223.839,233.52,240,237.84z"/>
</g>
<path style="fill:#FEC007;" d="M271.999,274.16c16.16,4.4,26.56,14.88,26.56,24.64c0,9.52-10.4,19.76-26.56,24V274.16z"/>
<g>
	<path style="fill:#1D1D1B;" d="M272.56,437.68c0,8.88-7.12,16.08-16,16.08c-8.8,0-16-7.12-16-16c-0.08-8.8,7.12-16,15.92-16
		C265.36,421.76,272.48,428.88,272.56,437.68z"/>
	<path style="fill:#1D1D1B;" d="M255.84,58.24c8.8,0,16,7.2,16,16s-7.2,16-16,16c-8.88,0-16-7.12-16-16
		C239.84,65.44,246.96,58.24,255.84,58.24z"/>
</g>
<path style="fill:#FEC007;" d="M240,189.2v48.64c-16.16-4.32-26.56-14.88-26.56-24.64C213.44,203.68,223.839,193.44,240,189.2z"/>
<g>
	<path style="fill:#1D1D1B;" d="M205.28,413.84c8.4,2.72,13.04,11.68,10.32,20.16c-2.16,6.72-8.48,11.12-15.2,11.12
		c-1.68,0-3.28-0.32-4.96-0.8c-8.4-2.72-13.04-11.76-10.32-20.16C187.84,415.76,196.88,411.12,205.28,413.84z"/>
	<path style="fill:#1D1D1B;" d="M204.639,98.32v0.08c-1.68,0.48-3.28,0.72-4.96,0.72c-6.72,0-13.04-4.24-15.2-11.04
		c-2.72-8.4,1.84-17.44,10.24-20.16c8.4-2.72,17.44,1.84,20.16,10.24S213.04,95.6,204.639,98.32z"/>
	<path style="fill:#1D1D1B;" d="M159.039,390.4c7.12,5.2,8.8,15.2,3.6,22.4c-3.12,4.32-8,6.64-12.96,6.64
		c-3.28,0-6.56-1.04-9.36-3.04c-7.2-5.2-8.8-15.2-3.6-22.4C141.84,386.88,151.84,385.28,159.039,390.4z"/>
	<path style="fill:#1D1D1B;" d="M162,99.6c5.2,7.12,3.68,17.12-3.52,22.32c-2.8,2.08-6.08,3.12-9.36,3.12
		c-4.96,0-9.84-2.32-12.96-6.64c-5.2-7.12-3.68-17.12,3.52-22.32C146.8,90.881,156.8,92.48,162,99.6z"/>
	<path style="fill:#1D1D1B;" d="M122.24,353.92c5.2,7.12,3.68,17.12-3.44,22.32c-2.88,2.08-6.16,3.12-9.44,3.12
		c-4.96,0-9.84-2.24-12.96-6.56c-5.2-7.12-3.68-17.12,3.44-22.32C106.96,345.2,117.039,346.8,122.24,353.92z"/>
	<path style="fill:#1D1D1B;" d="M118.32,136.32c7.12,5.12,8.72,15.12,3.52,22.32c-3.12,4.32-8,6.56-12.96,6.56
		c-3.28,0-6.56-0.96-9.36-3.04c-7.2-5.2-8.72-15.2-3.52-22.32C101.2,132.64,111.2,131.121,118.32,136.32z"/>
	<path style="fill:#1D1D1B;" d="M98.48,307.84c2.8,8.4-1.76,17.44-10.16,20.16c-1.68,0.56-3.36,0.8-5.04,0.8
		c-6.72,0-12.96-4.24-15.2-10.96c-2.72-8.4,1.84-17.44,10.24-20.24C86.72,294.88,95.76,299.44,98.48,307.84z"/>
	<path style="fill:#1D1D1B;" d="M88,184.64c8.4,2.72,13.04,11.76,10.32,20.16c-2.24,6.72-8.48,11.04-15.2,11.04
		c-1.68,0-3.36-0.24-4.96-0.8c-8.4-2.72-13.04-11.76-10.32-20.16C70.64,186.48,79.6,181.92,88,184.64z"/>
</g>
<path style="fill:#FEC007;" d="M74.319,272.72c8.8,0,16-7.2,15.92-16.08c0-0.08,0-0.16,0-0.24c0-0.16,0-0.24,0-0.4
	c0-8.8-7.12-16-16-16c-8.8,0-16,7.2-16,16c0,0.16,0,0.24,0,0.32c0,0.16,0,0.32,0,0.48c0.08,8.8,7.2,15.92,16,15.92H74.319z M256,32
	c123.52,0,224,100.48,224,224S379.52,480,256,480S32,379.52,32,256S132.48,32,256,32z M437.76,271.68c8.88-0.08,16-7.2,16-16.08
	c0-8.8-7.2-16-16.08-15.92c-8.8,0-15.92,7.12-15.92,16C421.76,264.48,428.959,271.68,437.76,271.68z M444.239,316.72
	c2.72-8.4-1.92-17.44-10.32-20.16c-8.4-2.72-17.44,1.92-20.16,10.32c-2.64,8.4,1.92,17.44,10.32,20.16c1.68,0.48,3.28,0.8,4.96,0.8
	C435.759,327.84,442.079,323.52,444.239,316.72z M433.76,214.72c8.4-2.72,12.96-11.76,10.24-20.16
	c-2.719-8.4-11.76-12.96-20.16-10.24c-8.4,2.72-12.96,11.76-10.24,20.16c2.16,6.72,8.48,11.04,15.2,11.04
	C430.48,215.52,432.159,215.28,433.76,214.72z M416.239,371.84c5.2-7.12,3.6-17.12-3.6-22.32c-7.12-5.2-17.12-3.6-22.32,3.6
	c-5.12,7.12-3.6,17.12,3.6,22.32c2.8,2.08,6.08,3.04,9.36,3.04C408.24,378.48,413.12,376.16,416.239,371.84z M412.319,161.84
	c7.12-5.2,8.72-15.2,3.52-22.32c-5.28-7.12-15.28-8.72-22.4-3.52c-7.12,5.2-8.72,15.28-3.44,22.4c3.12,4.24,8,6.56,12.88,6.56
	C406.159,164.961,409.439,163.92,412.319,161.84z M372.64,415.68c7.12-5.2,8.72-15.2,3.52-22.32c-5.28-7.12-15.28-8.72-22.4-3.52
	c-7.12,5.28-8.72,15.28-3.44,22.4c3.12,4.24,8,6.56,12.88,6.56C366.48,418.8,369.839,417.76,372.64,415.68z M375.599,118.24
	c5.2-7.2,3.6-17.2-3.6-22.4c-7.12-5.2-17.12-3.6-22.32,3.6c-5.2,7.12-3.6,17.12,3.6,22.32c2.8,2.08,6.08,3.04,9.36,3.04
	C367.6,124.8,372.48,122.48,375.599,118.24z M317.6,443.92c8.4-2.72,13.04-11.76,10.24-20.16c-2.72-8.4-11.76-12.96-20.16-10.24
	c-8.4,2.8-12.96,11.84-10.24,20.24c2.24,6.72,8.48,10.96,15.2,10.96C314.319,444.72,316,444.48,317.6,443.92z M327.2,87.92
	c2.72-8.4-1.92-17.36-10.32-20.08c-8.4-2.72-17.44,1.84-20.16,10.24s1.92,17.44,10.32,20.16c1.68,0.56,3.28,0.8,4.96,0.8
	C318.72,99.04,325.039,94.72,327.2,87.92z M314.56,229.2c8.88,0,16-7.2,16-16c0-28.24-24.72-51.2-58.56-56.8v-10.4
	c0-8.88-7.2-16-16-16c-8.8,0-16,7.12-16,16v10.4c-33.84,5.6-58.56,28.56-58.56,56.8c0,28.08,25.12,51.6,58.56,57.44v52.16
	c-16.16-4.24-26.56-14.48-26.56-24c0-8.8-7.2-16-16-16c-8.88,0-16,7.2-16,16c0,28.32,24.72,51.2,58.56,56.8v10.4
	c0,8.88,7.2,16,16,16c8.8,0,16-7.12,16-16v-10.4c33.84-5.6,58.56-28.48,58.56-56.8c0-28.08-25.12-51.6-58.56-57.36V189.2
	c16.16,4.24,26.56,14.48,26.56,24C298.56,222,305.759,229.2,314.56,229.2z M256.56,453.76c8.88,0,16-7.2,16-16.08
	c-0.08-8.8-7.2-15.92-16.08-15.92c-8.8,0-16,7.2-15.92,16C240.559,446.64,247.759,453.76,256.56,453.76z M271.84,74.24
	c0-8.8-7.2-16-16-16c-8.88,0-16,7.2-16,16c0,8.88,7.12,16,16,16C264.64,90.24,271.84,83.041,271.84,74.24z M215.6,434
	c2.72-8.48-1.92-17.44-10.32-20.16c-8.4-2.72-17.44,1.92-20.16,10.32s1.92,17.44,10.32,20.16c1.68,0.48,3.28,0.8,4.96,0.8
	C207.119,445.12,213.44,440.72,215.6,434z M204.639,98.32c8.4-2.72,12.96-11.76,10.24-20.16s-11.76-12.96-20.16-10.24
	c-8.4,2.72-12.96,11.76-10.24,20.16c2.16,6.8,8.48,11.04,15.2,11.04c1.68,0,3.28-0.24,4.96-0.72V98.32z M162.639,412.8
	c5.2-7.2,3.52-17.2-3.6-22.4c-7.2-5.12-17.2-3.52-22.32,3.6c-5.2,7.2-3.6,17.2,3.6,22.4c2.8,2,6.08,3.04,9.36,3.04
	C154.64,419.44,159.52,417.12,162.639,412.8z M158.48,121.92c7.2-5.2,8.72-15.2,3.52-22.32c-5.2-7.12-15.2-8.72-22.32-3.52
	c-7.2,5.2-8.72,15.2-3.52,22.32c3.12,4.32,8,6.64,12.96,6.64C152.4,125.04,155.68,124.001,158.48,121.92z M118.799,376.24
	c7.12-5.2,8.64-15.2,3.44-22.32c-5.2-7.12-15.28-8.72-22.4-3.44c-7.12,5.2-8.64,15.2-3.44,22.32c3.12,4.32,8,6.56,12.96,6.56
	C112.64,379.36,115.92,378.32,118.799,376.24z M121.84,158.64c5.2-7.2,3.6-17.2-3.52-22.32c-7.12-5.2-17.12-3.68-22.32,3.52
	c-5.2,7.12-3.68,17.12,3.52,22.32c2.8,2.08,6.08,3.04,9.36,3.04C113.839,165.2,118.72,162.96,121.84,158.64z M88.32,328
	c8.4-2.72,12.96-11.76,10.16-20.16c-2.72-8.4-11.76-12.96-20.16-10.24c-8.4,2.8-12.96,11.84-10.24,20.24
	c2.24,6.72,8.48,10.96,15.2,10.96C84.96,328.8,86.64,328.56,88.32,328z M98.32,204.8c2.72-8.4-1.92-17.44-10.32-20.16
	s-17.36,1.84-20.16,10.24c-2.72,8.4,1.92,17.44,10.32,20.16c1.6,0.56,3.28,0.8,4.96,0.8C89.84,215.84,96.08,211.52,98.32,204.8z"/>
<path style="fill:#1D1D1B;" d="M90.24,256.64c0.08,8.88-7.12,16.08-15.92,16.08h-0.08c-8.8,0-15.92-7.12-16-15.92
	c0-0.16,0-0.32,0-0.48c0-0.08,0-0.16,0-0.32c0-8.8,7.2-16,16-16c8.88,0,16,7.2,16,16c0,0.16,0,0.24,0,0.4
	C90.24,256.48,90.24,256.56,90.24,256.64z"/>
<g>
</g>
<g>
</g>
<g>
</g>
<g>
</g>
<g>
</g>
<g>
</g>
<g>
</g>
<g>
</g>
<g>
</g>
<g>
</g>
<g>
</g>
<g>
</g>
<g>
</g>
<g>
</g>
<g>
</g>
</svg>
