<?xml version="1.0" encoding="iso-8859-1"?>
<!-- Generator: Adobe Illustrator 19.0.0, SVG Export Plug-In . SVG Version: 6.00 Build 0)  -->
<svg version="1.1" id="Capa_1" xmlns="http://www.w3.org/2000/svg" xmlns:xlink="http://www.w3.org/1999/xlink" x="0px" y="0px"
	 viewBox="0 0 511.999 511.999" style="enable-background:new 0 0 511.999 511.999;" xml:space="preserve">
<g>
	<g>
		<g>
			<path d="M272,241.403V189.2c16.187,4.261,26.586,14.511,26.586,23.992c0,8.836,7.164,16,16,16c8.835,0,16-7.164,16-16
				c0-28.269-24.707-51.195-58.586-56.758v-10.473c0-8.836-7.164-16-16-16c-8.835,0-16,7.164-16,16v10.473
				c-33.879,5.563-58.586,28.488-58.586,56.758c0,28.098,25.131,51.621,58.586,57.414v52.195
				c-16.187-4.258-26.586-14.504-26.586-23.984c0-8.836-7.164-16-16-16c-8.836,0-16,7.164-16,16
				c0,28.265,24.707,51.192,58.586,56.75v10.472c0,8.836,7.164,16,16,16c8.835,0,16-7.164,16-16v-10.472
				c33.879-5.559,58.586-28.484,58.586-56.75C330.586,270.719,305.455,247.196,272,241.403z M240,237.867
				c-16.187-4.383-26.586-14.926-26.586-24.676c0-9.48,10.399-19.73,26.586-23.992V237.867z M272,322.8v-48.66
				c16.187,4.383,26.586,14.926,26.586,24.676C298.586,308.296,288.187,318.543,272,322.8z"/>
			<path d="M256,0C114.84,0,0,114.84,0,256s114.84,256,256,256s256-114.84,256-256S397.16,0,256,0z M256,480
				C132.484,480,32,379.516,32,256S132.484,32,256,32s224,100.484,224,224S379.516,480,256,480z"/>
			<path d="M99.84,350.48c-7.121,5.199-8.641,15.199-3.441,22.32c3.121,4.32,8,6.559,12.961,6.559c3.282,0,6.559-1.039,9.441-3.117
				c7.117-5.203,8.637-15.203,3.437-22.32C117.039,346.8,106.961,345.199,99.84,350.48z"/>
			<path d="M74.32,272.719c8.797,0,16-7.199,15.918-16.078c0-0.082,0-0.16,0-0.242c0-0.156,0-0.238,0-0.398c0-8.801-7.121-16-16-16
				c-8.801,0-16,7.199-16,16c0,0.16,0,0.242,0,0.32c0,0.16,0,0.32,0,0.48c0.082,8.801,7.199,15.918,16,15.918H74.32z"/>
			<path d="M98.48,307.84c-2.723-8.402-11.762-12.961-20.16-10.238c-8.402,2.797-12.961,11.836-10.242,20.238
				c2.242,6.719,8.48,10.961,15.199,10.961c1.683,0,3.364-0.242,5.043-0.801C96.719,325.281,101.277,316.242,98.48,307.84z"/>
			<path d="M149.117,125.039c3.282,0,6.562-1.039,9.364-3.117c7.199-5.203,8.719-15.203,3.519-22.32
				c-5.199-7.121-15.199-8.723-22.32-3.523c-7.199,5.203-8.719,15.203-3.519,22.32C139.277,122.719,144.16,125.039,149.117,125.039z
				"/>
			<path d="M413.598,204.481c2.16,6.719,8.481,11.039,15.203,11.039c1.679,0,3.359-0.238,4.957-0.801
				c8.402-2.719,12.961-11.758,10.242-20.16c-2.723-8.398-11.762-12.957-20.16-10.238
				C415.438,187.039,410.878,196.078,413.598,204.481z"/>
			<path d="M307.039,98.242c1.68,0.559,3.282,0.797,4.961,0.797c6.719,0,13.039-4.32,15.199-11.117
				c2.719-8.402-1.922-17.363-10.32-20.082s-17.441,1.84-20.16,10.238C294,86.48,298.64,95.52,307.039,98.242z"/>
			<path d="M99.519,162.16c2.801,2.082,6.078,3.039,9.359,3.039c4.961,0,9.84-2.238,12.961-6.559
				c5.199-7.203,3.598-17.203-3.519-22.32c-7.121-5.199-17.121-3.68-22.32,3.519C90.801,146.961,92.32,156.961,99.519,162.16z"/>
			<path d="M255.84,90.242c8.801,0,16-7.203,16-16c0-8.805-7.199-16-16-16c-8.879,0-16,7.196-16,16
				C239.839,83.121,246.961,90.242,255.84,90.242z"/>
			<path d="M199.68,99.121c1.68,0,3.281-0.242,4.961-0.723V98.32c8.398-2.719,12.957-11.762,10.238-20.16
				c-2.719-8.402-11.762-12.961-20.16-10.238c-8.398,2.719-12.961,11.758-10.238,20.156C186.64,94.879,192.961,99.121,199.68,99.121
				z"/>
			<path d="M78.16,215.039c1.597,0.562,3.277,0.801,4.957,0.801c6.723,0,12.961-4.32,15.203-11.039
				c2.719-8.402-1.922-17.441-10.32-20.16c-8.402-2.719-17.359,1.84-20.16,10.238C65.117,203.281,69.758,212.32,78.16,215.039z"/>
			<path d="M402.879,164.961c3.282,0,6.559-1.039,9.441-3.121c7.117-5.199,8.719-15.199,3.519-22.32
				c-5.281-7.121-15.281-8.719-22.402-3.519c-7.117,5.199-8.719,15.281-3.437,22.399C393.117,162.641,398,164.961,402.879,164.961z"
				/>
			<path d="M412.64,349.52c-7.121-5.199-17.121-3.598-22.32,3.601c-5.121,7.121-3.601,17.121,3.598,22.317
				c2.801,2.082,6.082,3.043,9.359,3.043c4.961,0,9.84-2.32,12.961-6.641C421.438,364.719,419.84,354.718,412.64,349.52z"/>
			<path d="M433.918,296.558c-8.398-2.719-17.437,1.922-20.16,10.32c-2.641,8.402,1.922,17.441,10.32,20.16
				c1.68,0.48,3.282,0.801,4.961,0.801c6.719,0,13.039-4.32,15.199-11.121C446.961,308.32,442.32,299.281,433.918,296.558z"/>
			<path d="M437.679,239.68c-8.801,0-15.922,7.121-15.922,16c0,8.801,7.203,16,16,16c8.883-0.078,16-7.199,16-16.078
				C453.757,246.801,446.558,239.602,437.679,239.68z"/>
			<path d="M353.758,389.839c-7.117,5.281-8.719,15.281-3.437,22.402c3.117,4.238,8,6.558,12.879,6.558
				c3.282,0,6.641-1.043,9.441-3.121c7.117-5.199,8.719-15.199,3.519-22.32C370.879,386.242,360.879,384.641,353.758,389.839z"/>
			<path d="M353.277,121.758c2.801,2.082,6.082,3.043,9.364,3.043c4.957,0,9.84-2.32,12.957-6.559
				c5.203-7.203,3.601-17.203-3.598-22.402c-7.121-5.199-17.121-3.598-22.32,3.598C344.48,106.559,346.078,116.558,353.277,121.758z
				"/>
			<path d="M205.277,413.84c-8.398-2.719-17.438,1.918-20.16,10.32c-2.719,8.398,1.922,17.441,10.32,20.16
				c1.679,0.48,3.282,0.801,4.961,0.801c6.719,0,13.039-4.402,15.199-11.121C218.32,425.519,213.68,416.559,205.277,413.84z"/>
			<path d="M159.039,390.398c-7.199-5.117-17.199-3.519-22.32,3.601c-5.199,7.199-3.601,17.199,3.601,22.399
				c2.797,2,6.078,3.039,9.359,3.039c4.961,0,9.84-2.317,12.961-6.637C167.839,405.601,166.16,395.602,159.039,390.398z"/>
			<path d="M256.481,421.757c-8.801,0-16,7.203-15.922,16c0,8.883,7.199,16,16,16c8.879,0,16-7.199,16-16.078
				C272.48,428.879,265.359,421.757,256.481,421.757z"/>
			<path d="M307.68,413.519c-8.402,2.801-12.961,11.84-10.242,20.238c2.242,6.723,8.48,10.961,15.203,10.961
				c1.68,0,3.359-0.238,4.957-0.797c8.402-2.723,13.043-11.762,10.242-20.164C325.117,415.359,316.078,410.801,307.68,413.519z"/>
		</g>
	</g>
</g>
<g>
</g>
<g>
</g>
<g>
</g>
<g>
</g>
<g>
</g>
<g>
</g>
<g>
</g>
<g>
</g>
<g>
</g>
<g>
</g>
<g>
</g>
<g>
</g>
<g>
</g>
<g>
</g>
<g>
</g>
</svg>
