<?xml version="1.0" encoding="iso-8859-1"?>
<!-- Generator: Adobe Illustrator 19.0.0, SVG Export Plug-In . SVG Version: 6.00 Build 0)  -->
<svg version="1.1" id="Capa_1" xmlns="http://www.w3.org/2000/svg" xmlns:xlink="http://www.w3.org/1999/xlink" x="0px" y="0px"
	 viewBox="0 0 512 512" style="enable-background:new 0 0 512 512;" xml:space="preserve">
<g>
	<polygon style="fill:#FFC28A;" points="340,295.971 303.333,433.982 340,433.982 376.667,295.971 	"/>
	<polygon style="fill:#FFC28A;" points="437.086,295.971 400.419,295.971 437.086,433.982 473.752,433.982 	"/>
	<polygon style="fill:#FFC28A;" points="74.66,295.971 37.994,433.982 74.66,433.982 111.327,295.971 	"/>
	<polygon style="fill:#FFC28A;" points="171.746,295.971 135.079,295.971 171.746,433.982 208.413,433.982 	"/>
</g>
<g>
	<path style="fill:#FF63C3;" d="M305.809,295.971h127.676c37.84,0,68.515-30.675,68.515-68.515V90.48
		c0-13.615-18.725-17.343-23.94-4.767l-22.589,54.47c-9.703,23.397-32.539,38.649-57.868,38.649l0,0
		c-22.472,0-43.222,12.036-54.38,31.542l-17.395,30.41c-6.244,10.916-15.629,19.701-26.934,25.21l0,0
		C283.841,273.331,289.064,295.971,305.809,295.971z"/>
	<path style="fill:#FF63C3;" d="M206.191,295.971H78.515c-37.84,0-68.515-30.675-68.515-68.515V90.48
		c0-13.615,18.725-17.343,23.94-4.767l22.589,54.47c9.703,23.397,32.54,38.649,57.868,38.649l0,0
		c22.472,0,43.222,12.036,54.38,31.542l17.395,30.41c6.244,10.916,15.629,19.701,26.934,25.21l0,0
		C228.159,273.331,222.936,295.971,206.191,295.971z"/>
</g>
<path style="fill:#CCCAFF;" d="M320,147.982H192c-11.046,0-20,8.954-20,20l0,0c0,11.046,8.954,20,20,20h128c11.046,0,20-8.954,20-20
	l0,0C340,156.936,331.046,147.982,320,147.982z"/>
<path d="M493.939,68.468c-10.642-2.119-20.963,3.398-25.117,13.415l-22.589,54.47c-8.183,19.731-27.271,32.48-48.631,32.48
	c-25.992,0-50.155,14.016-63.061,36.577l-17.395,30.411c-5.268,9.21-13.096,16.537-22.635,21.186
	c-11.03,5.375-16.588,17.02-13.829,28.977c2.758,11.956,12.855,19.989,25.125,19.989h21.187l-31.353,118.011h-29.77v-19.98
	c0-5.523-4.478-10-10-10s-10,4.477-10,10v19.98h-29.77L184.75,305.971h21.441c12.27,0,22.367-8.033,25.125-19.989
	c2.759-11.957-2.799-23.601-13.829-28.977c-9.539-4.649-17.367-11.976-22.635-21.187l-17.395-30.41
	c-12.905-22.562-37.068-36.577-63.061-36.577c-21.359,0-40.448-12.749-48.631-32.479l-22.587-54.47
	c-4.154-10.015-14.481-15.531-25.117-13.414C7.427,70.585,0,79.638,0,90.481v136.976c0,37.67,26.67,69.216,62.117,76.779
	L28.328,431.414c-0.797,3.001-0.155,6.202,1.738,8.664c1.893,2.461,4.821,3.904,7.927,3.904h435.76c3.105,0,6.034-1.442,7.927-3.904
	c1.894-2.462,2.535-5.663,1.738-8.664l-33.774-127.123C485.21,296.82,512,265.211,512,227.457V90.481
	C512,79.638,504.573,70.585,493.939,68.468z M20,227.457V90.481c0-0.549,0-2.006,1.967-2.398c0.245-0.048,0.467-0.07,0.67-0.07
	c1.432,0,1.883,1.088,2.066,1.531l22.589,54.471c11.291,27.226,37.632,44.818,67.105,44.818c18.837,0,36.348,10.157,45.699,26.507
	l17.395,30.41c7.271,12.71,18.07,22.819,31.234,29.235c3.734,1.82,3.414,5.153,3.104,6.502c-0.312,1.348-1.483,4.485-5.638,4.485
	H78.515C46.25,285.971,20,259.722,20,227.457z M82.351,305.971h15.972L66.97,423.982H50.997L82.351,305.971z M87.664,423.982
	l31.354-118.011h8.371l31.354,118.011H87.664z M191.413,423.982h-11.977l-31.353-118.011h15.972l31.354,118.011H191.413z
	 M316.337,423.982l31.354-118.011h15.972L332.31,423.982h-11.977H316.337z M353.004,423.982l31.354-118.011h8.371l31.354,118.011
	H353.004z M444.776,423.982l-31.353-118.011h15.972l31.354,118.011H444.776z M492,227.457c0,32.265-26.25,58.515-58.515,58.515
	H305.809c-4.154,0-5.326-3.137-5.638-4.485c-0.311-1.349-0.631-4.682,3.104-6.502c5.063-2.467,9.771-5.486,14.068-8.983H388
	c5.522,0,10-4.477,10-10c0-5.523-4.478-10-10-10h-53.641c0.049-0.085,0.102-0.166,0.15-0.251l17.395-30.411
	c9.352-16.35,26.862-26.507,45.699-26.507c29.474,0,55.814-17.592,67.105-44.818l22.589-54.47c0.184-0.444,0.635-1.532,2.066-1.532
	c0.203,0,0.425,0.022,0.67,0.07C492,88.475,492,89.932,492,90.481V227.457z"/>
<path d="M192,197.982h53.873v136.019c0,5.523,4.478,10,10,10c5.522,0,10-4.477,10-10V197.982H320c16.542,0,30-13.458,30-30
	s-13.458-30-30-30H192c-16.542,0-30,13.458-30,30S175.458,197.982,192,197.982z M192,157.982h128c5.514,0,10,4.486,10,10
	s-4.486,10-10,10H192c-5.514,0-10-4.486-10-10S186.486,157.982,192,157.982z"/>
<path d="M255.87,358.331c-2.63,0-5.21,1.07-7.07,2.93s-2.93,4.44-2.93,7.07s1.069,5.21,2.93,7.07c1.86,1.87,4.44,2.93,7.07,2.93
	s5.21-1.06,7.069-2.93c1.87-1.86,2.931-4.44,2.931-7.07s-1.061-5.21-2.931-7.07C261.08,359.401,258.5,358.331,255.87,358.331z"/>
<path d="M424.21,246.001c-2.63,0-5.21,1.07-7.07,2.93c-1.859,1.86-2.93,4.44-2.93,7.07c0,2.63,1.07,5.21,2.93,7.07
	c1.86,1.86,4.44,2.93,7.07,2.93s5.21-1.07,7.07-2.93c1.859-1.86,2.93-4.44,2.93-7.07c0-2.63-1.07-5.21-2.93-7.07
	S426.84,246.001,424.21,246.001z"/>
<g>
</g>
<g>
</g>
<g>
</g>
<g>
</g>
<g>
</g>
<g>
</g>
<g>
</g>
<g>
</g>
<g>
</g>
<g>
</g>
<g>
</g>
<g>
</g>
<g>
</g>
<g>
</g>
<g>
</g>
</svg>
