<svg id="Calque_1" data-name="Calque 1" xmlns="http://www.w3.org/2000/svg" viewBox="0 0 1695.02 862.55"><defs><style>.cls-1{fill:#c59635;}.cls-2{fill:#c49135;}.cls-3{fill:#1d1d1b;}.cls-4{fill:#3a64ad;}.cls-5{fill:#fff;}.cls-6{fill:#bf1728;}</style></defs><title>Logo noir V2</title><path class="cls-1" d="M570.7,251.09c-3-8.13-6-16.36-6.9-25s.45-17.77,5.54-24.77a46.28,46.28,0,0,1,10-9.42,184.22,184.22,0,0,1,41.45-23.43A111,111,0,0,1,625.93,199c.15,5.36-.11,10.82-1.92,15.86-3,8.25-9.76,14.47-16.6,20C597.35,242.91,585.86,250.44,573,251"/><path class="cls-1" d="M547.47,305.72c1.67-8.49,3.38-17.08,7.06-24.92s9.62-14.95,17.6-18.29c4.24-1.78,8.86-2.41,13.43-2.87a184,184,0,0,1,47.58,1.51,110.9,110.9,0,0,1-11.43,28.75c-2.66,4.66-5.71,9.19-9.88,12.56-6.83,5.5-15.86,7.3-24.55,8.44-12.79,1.67-26.52,2.14-37.82-4.1"/><path class="cls-1" d="M511.41,374.71c1.68-8.5,3.38-17.09,7.07-24.93s9.61-14.95,17.6-18.29a46.75,46.75,0,0,1,13.43-2.87,184,184,0,0,1,47.58,1.51,111.61,111.61,0,0,1-11.43,28.75c-2.66,4.66-5.72,9.19-9.89,12.56-6.82,5.5-15.85,7.3-24.54,8.44-12.79,1.67-26.53,2.14-37.82-4.1"/><path class="cls-1" d="M478,442c1.67-8.5,3.38-17.09,7.06-24.93s9.62-14.95,17.6-18.29c4.24-1.77,8.86-2.41,13.43-2.87a184,184,0,0,1,47.58,1.51,110.9,110.9,0,0,1-11.43,28.75c-2.66,4.66-5.71,9.19-9.88,12.56-6.83,5.5-15.86,7.3-24.55,8.44-12.79,1.67-26.52,2.14-37.82-4.1"/><path class="cls-1" d="M447.62,509.93c1.68-8.5,3.38-17.09,7.07-24.93s9.61-14.95,17.6-18.29a46.41,46.41,0,0,1,13.42-2.86,183.66,183.66,0,0,1,47.59,1.5,111.2,111.2,0,0,1-11.44,28.76c-2.65,4.65-5.71,9.18-9.88,12.55-6.82,5.5-15.85,7.3-24.54,8.44-12.8,1.68-26.53,2.15-37.82-4.1"/><path class="cls-1" d="M416,582.52c1.67-8.49,3.38-17.08,7.06-24.92s9.62-15,17.61-18.29c4.23-1.78,8.85-2.42,13.42-2.87A183.57,183.57,0,0,1,501.67,538a110.9,110.9,0,0,1-11.43,28.75c-2.65,4.66-5.71,9.19-9.88,12.56-6.83,5.5-15.86,7.29-24.55,8.43-12.79,1.68-26.52,2.15-37.82-4.09"/><path class="cls-1" d="M531.87,297.61c-7.06-5-14.2-10.08-19.84-16.65s-9.71-14.89-9.49-23.55A46.48,46.48,0,0,1,505.42,244a184.39,184.39,0,0,1,20.85-42.8,111,111,0,0,1,21.56,22.21c3.16,4.32,6,9,7.41,14.15,2.22,8.48.17,17.45-2.35,25.85-3.71,12.36-8.9,25.08-19.22,32.83"/><path class="cls-1" d="M497.16,367.82c-7.2-4.81-14.47-9.69-20.29-16.11s-10.1-14.62-10.11-23.28c0-4.59,1.18-9.1,2.52-13.49A183.89,183.89,0,0,1,489,271.59a111.5,111.5,0,0,1,22.15,21.62c3.27,4.24,6.28,8.81,7.78,14,2.46,8.41.64,17.44-1.65,25.9-3.37,12.46-8.22,25.31-18.33,33.34"/><path class="cls-1" d="M462.17,435c-7.28-4.69-14.64-9.45-20.56-15.77s-10.35-14.45-10.51-23.11a46.38,46.38,0,0,1,2.3-13.53,183.55,183.55,0,0,1,19-43.67,110.83,110.83,0,0,1,22.5,21.24c3.35,4.18,6.44,8.7,8,13.81,2.6,8.38.94,17.43-1.21,25.93-3.16,12.51-7.8,25.45-17.76,33.64"/><path class="cls-1" d="M433.5,504.72c-7.64-4.07-15.37-8.21-21.79-14s-11.51-13.55-12.38-22.17a46.36,46.36,0,0,1,1.17-13.67,183.74,183.74,0,0,1,15.29-45.09A111.31,111.31,0,0,1,440,429.09c3.68,3.89,7.13,8.14,9.13,13.11,3.28,8.13,2.37,17.29.93,25.93-2.11,12.73-5.66,26-14.92,35"/><path class="cls-1" d="M403.22,577.91c-7.64-4.07-15.37-8.21-21.79-14s-11.51-13.55-12.38-22.17a46.36,46.36,0,0,1,1.17-13.67A183.32,183.32,0,0,1,385.51,483a111.55,111.55,0,0,1,24.18,19.31c3.68,3.89,7.13,8.14,9.13,13.11,3.28,8.12,2.37,17.29.93,25.93-2.12,12.73-5.66,26-14.92,35"/><path class="cls-2" d="M344.26,852.58a1334.09,1334.09,0,0,1,46-193.9q8.64-27.09,18.43-53.78c.95-2.6-12.25-1.22-13.57,2.38a1328.61,1328.61,0,0,0-54.28,191.55q-5.7,27.95-10.19,56.13c-.53,3.35,13,1,13.57-2.38Z"/><path class="cls-2" d="M624.34,156.76c1.78-7.21,5.35-13.65,8.36-20.33l4.8-9.88,5-9.81c6.72-13,13.82-25.86,21.4-38.39s15.6-24.81,24-36.78S705.29,18,714.63,6.72l.27.22q-13.68,17.17-26,35.31t-23.58,37c-7.44,12.58-14.53,25.36-21.16,38.38l-4.91,9.8-4.75,9.88-4.59,9.95c-.75,1.67-1.53,3.32-2.39,4.94a43.27,43.27,0,0,1-2.83,4.74Z"/><path class="cls-2" d="M528.63,193a71.36,71.36,0,0,1,2.33-8.14l2.89-7.95,3-7.89,3.21-7.83q6.55-15.6,14.32-30.66t16.66-29.44Q580,86.74,590,73.06l.14.1q-9.76,13.8-18.5,28.27t-16.42,29.51c-5.1,10-9.86,20.25-14.2,30.64l-3.18,7.82-3,7.88-2.87,7.94a72.61,72.61,0,0,1-3.1,7.87Z"/><path class="cls-2" d="M486.87,262.14a73,73,0,0,1,1.61-8.31l2.19-8.17,2.35-8.13,2.51-8.08q5.18-16.11,11.59-31.79t14-30.78q7.62-15.1,16.35-29.6l.15.09q-8.52,14.59-16,29.78T507.9,198q-6.31,15.66-11.48,31.75l-2.48,8.07-2.32,8.12-2.17,8.16a72.93,72.93,0,0,1-2.41,8.1Z"/><path class="cls-2" d="M450.63,332.31a71.89,71.89,0,0,1,.88-8.43l1.47-8.33,1.63-8.3,1.8-8.27q3.75-16.5,8.78-32.68t11.29-31.88q6.27-15.72,13.7-30.92l.16.08q-7.21,15.28-13.3,31.06T466,266.55q-4.94,16.15-8.67,32.64l-1.77,8.25-1.61,8.29-1.44,8.32a72,72,0,0,1-1.7,8.28Z"/><path class="cls-2" d="M415.11,403.07a72.31,72.31,0,0,1,.14-8.46l.74-8.43.9-8.42,1.07-8.39q2.31-16.77,5.9-33.32t8.47-32.75q4.88-16.19,10.95-32l.17.06q-5.86,15.86-10.55,32.1t-8.22,32.76q-3.51,16.51-5.79,33.26l-1.05,8.38-.88,8.4-.71,8.41a72.26,72.26,0,0,1-1,8.4Z"/><path class="cls-2" d="M383.78,475.89a70.28,70.28,0,0,1-.6-8.44V459l.17-8.46.33-8.45q.84-16.9,3-33.7T392.24,375q3.45-16.56,8.12-32.82l.17.05q-4.45,16.29-7.71,32.89t-5.34,33.35c-1.36,11.18-2.34,22.4-2.86,33.64l-.31,8.44-.15,8.44,0,8.44a72.5,72.5,0,0,1-.23,8.46Z"/><path class="cls-2" d="M642.33,256.11a74.72,74.72,0,0,1,4.66-7.05l4.86-6.91,4.73-7,4.58-7.09q9-14.26,17-29.21t14.76-30.38q6.84-15.43,12.55-31.37l.17.06q-5.51,16-12.18,31.55t-14.56,30.54q-7.86,15-16.89,29.31l-4.58,7.11-4.72,7-4.85,6.93a72.74,72.74,0,0,1-5.34,6.58Z"/><path class="cls-2" d="M604.71,327.62a73.44,73.44,0,0,1,5.48-6.43l5.67-6.26,5.54-6.37,5.41-6.48c7.14-8.7,13.92-17.7,20.39-26.92s12.58-18.68,18.34-28.35,11.22-19.54,16.29-29.61l.15.08q-7.41,15.19-15.92,29.83t-18.18,28.53q-9.61,13.92-20.34,27l-5.41,6.51-5.54,6.4-5.66,6.28a69.16,69.16,0,0,1-6.1,5.88Z"/><path class="cls-2" d="M570.67,396.21a72,72,0,0,1,5.82-6.14l6-6,5.87-6.07,5.74-6.18q11.38-12.48,21.77-25.82t19.8-27.36q9.42-14,17.81-28.71l.16.09q-8.21,14.79-17.47,28.95t-19.64,27.54c-6.89,8.93-14.16,17.58-21.73,25.94L589,378.7l-5.86,6.1-6,6a69.05,69.05,0,0,1-6.39,5.55Z"/><path class="cls-2" d="M540.54,464.86a71.56,71.56,0,0,1,6.12-5.83L553,453.4l6.18-5.76,6.06-5.87q12-11.88,23.09-24.65t21.21-26.28q10.14-13.51,19.28-27.74l.15.09q-9,14.34-19,28t-21.05,26.47q-11,12.84-23.06,24.76l-6.06,5.91-6.18,5.78-6.29,5.66a70.22,70.22,0,0,1-6.67,5.21Z"/><path class="cls-2" d="M508.55,534.26a72.79,72.79,0,0,1,6.42-5.5l6.58-5.29L528,518l6.37-5.55q12.61-11.22,24.34-23.4T581.28,464q10.83-13,20.71-26.69l.14.1q-9.69,13.86-20.39,27t-22.42,25.33Q547.64,501.91,535,513.19l-6.36,5.58-6.47,5.45-6.58,5.33a73,73,0,0,1-6.94,4.85Z"/><path class="cls-1" d="M145.18,252.13c3-8.13,6-16.36,6.91-25s-.45-17.78-5.54-24.78a46.29,46.29,0,0,0-10-9.41,183.56,183.56,0,0,0-41.44-23.43A111,111,0,0,0,90,200.05c-.14,5.36.11,10.82,1.93,15.86,3,8.25,9.76,14.47,16.59,20C118.53,244,130,251.48,142.92,252"/><path class="cls-1" d="M168.42,306.76c-1.67-8.49-3.38-17.09-7.07-24.92s-9.61-15-17.6-18.3a46.41,46.41,0,0,0-13.42-2.86,184,184,0,0,0-47.58,1.5,110.82,110.82,0,0,0,11.43,28.76c2.65,4.65,5.71,9.19,9.88,12.55,6.82,5.51,15.85,7.3,24.54,8.44,12.8,1.68,26.53,2.15,37.83-4.09"/><path class="cls-1" d="M204.47,375.74c-1.67-8.49-3.38-17.09-7.06-24.92s-9.62-15-17.61-18.3a46.34,46.34,0,0,0-13.42-2.86,183.57,183.57,0,0,0-47.58,1.51,110.9,110.9,0,0,0,11.43,28.75c2.65,4.65,5.71,9.19,9.88,12.55,6.83,5.51,15.86,7.3,24.55,8.44,12.79,1.68,26.52,2.15,37.82-4.09"/><path class="cls-1" d="M237.91,443.05c-1.67-8.49-3.38-17.09-7.07-24.92s-9.61-15-17.6-18.3A46.34,46.34,0,0,0,199.82,397a183.57,183.57,0,0,0-47.58,1.51,110.9,110.9,0,0,0,11.43,28.75c2.65,4.65,5.71,9.19,9.88,12.55,6.82,5.51,15.85,7.3,24.54,8.44,12.8,1.68,26.53,2.15,37.83-4.09"/><path class="cls-1" d="M268.27,511c-1.68-8.49-3.39-17.08-7.07-24.92s-9.62-15-17.6-18.29a46.16,46.16,0,0,0-13.43-2.87,184,184,0,0,0-47.58,1.51A111.25,111.25,0,0,0,194,495.14c2.66,4.66,5.71,9.19,9.88,12.56,6.83,5.5,15.86,7.29,24.55,8.43,12.79,1.68,26.52,2.15,37.82-4.09"/><path class="cls-1" d="M299.89,583.56c-1.67-8.49-3.38-17.09-7.07-24.92s-9.61-15-17.6-18.3a46.41,46.41,0,0,0-13.42-2.86,183.66,183.66,0,0,0-47.59,1.5,111.2,111.2,0,0,0,11.44,28.76c2.65,4.65,5.71,9.19,9.88,12.55,6.82,5.5,15.85,7.3,24.54,8.44,12.8,1.68,26.53,2.15,37.82-4.09"/><path class="cls-1" d="M184,298.65c7.07-5,14.21-10.08,19.85-16.65s9.71-14.9,9.49-23.55A46.43,46.43,0,0,0,210.46,245a183.4,183.4,0,0,0-20.85-42.8,111.4,111.4,0,0,0-21.55,22.2c-3.16,4.33-6.05,9-7.41,14.16-2.23,8.48-.17,17.45,2.35,25.85,3.7,12.36,8.9,25.08,19.21,32.83"/><path class="cls-1" d="M218.73,368.86c7.19-4.81,14.47-9.69,20.28-16.11s10.11-14.63,10.12-23.28c0-4.6-1.18-9.1-2.52-13.5a184,184,0,0,0-19.69-43.34,111.45,111.45,0,0,0-22.15,21.61c-3.27,4.24-6.28,8.81-7.78,13.95-2.46,8.42-.64,17.45,1.65,25.91,3.37,12.45,8.22,25.31,18.32,33.33"/><path class="cls-1" d="M253.72,436.06c7.28-4.69,14.63-9.45,20.55-15.76s10.36-14.46,10.51-23.11c.09-4.6-1-9.12-2.29-13.54a183.9,183.9,0,0,0-19-43.67A111.7,111.7,0,0,0,241,361.22c-3.34,4.19-6.43,8.7-8,13.82-2.59,8.37-.93,17.43,1.22,25.93,3.16,12.51,7.79,25.44,17.76,33.64"/><path class="cls-1" d="M282.39,505.76c7.64-4.08,15.36-8.21,21.78-14s11.52-13.55,12.39-22.16a46.45,46.45,0,0,0-1.17-13.68,183.8,183.8,0,0,0-15.29-45.08,110.48,110.48,0,0,0-24.18,19.31c-3.68,3.89-7.13,8.13-9.14,13.1-3.28,8.13-2.37,17.29-.93,25.94,2.12,12.73,5.67,26,14.93,35"/><path class="cls-1" d="M312.67,579c7.64-4.08,15.36-8.21,21.79-14s11.51-13.55,12.38-22.16a46.45,46.45,0,0,0-1.17-13.68A183.8,183.8,0,0,0,330.38,484a111,111,0,0,0-24.18,19.3c-3.68,3.9-7.13,8.14-9.14,13.11-3.27,8.13-2.36,17.29-.93,25.94,2.12,12.73,5.67,26,14.93,35"/><path class="cls-2" d="M385.28,853a1333.78,1333.78,0,0,0-46-193.9Q330.6,632,320.81,605.28c-1.21-3.32-14.78.85-13.74,3.68a1328.74,1328.74,0,0,1,54.28,191.56q5.7,27.94,10.19,56.13c.46,2.88,14.32-.1,13.74-3.68Z"/><path class="cls-2" d="M91.23,157.94a43.4,43.4,0,0,1-2.83-4.75c-.87-1.61-1.64-3.27-2.39-4.93l-4.59-9.95-4.75-9.88-4.91-9.8C65.13,105.61,58,92.82,50.6,80.24S35.31,55.33,27,43.28,10.1,19.42,1,8l.27-.22Q15.27,24.67,28,42.6T52,79.38c7.58,12.54,14.68,25.37,21.39,38.39l5,9.81,4.8,9.89c3,6.67,6.58,13.12,8.36,20.33Z"/><path class="cls-2" d="M187.09,194.13a74.33,74.33,0,0,1-3.11-7.87l-2.86-7.94-3-7.88-3.18-7.82c-4.33-10.39-9.09-20.6-14.19-30.64s-10.59-19.88-16.43-29.51-12-19.08-18.49-28.27l.14-.11q9.93,13.68,18.86,28.07t16.66,29.44q7.77,15,14.32,30.65l3.2,7.83L182,178l2.89,8a71.4,71.4,0,0,1,2.34,8.14Z"/><path class="cls-2" d="M228.84,263.22a74.64,74.64,0,0,1-2.41-8.11L224.27,247,222,238.84l-2.49-8.07C216.05,220,212.2,209.46,208,199s-8.81-20.72-13.79-30.83-10.28-20.05-16-29.78l.15-.09q8.7,14.5,16.34,29.61t14,30.78q6.44,15.65,11.6,31.78l2.51,8.08,2.35,8.13,2.18,8.18a73,73,0,0,1,1.62,8.31Z"/><path class="cls-2" d="M265.08,333.37a74.27,74.27,0,0,1-1.69-8.29l-1.45-8.31-1.6-8.29-1.78-8.26c-2.46-11-5.37-21.86-8.66-32.63s-7-21.42-11.05-31.92-8.49-20.87-13.3-31l.15-.08q7.43,15.19,13.71,30.91t11.29,31.89q5,16.16,8.78,32.68l1.8,8.26,1.63,8.31,1.46,8.33a72,72,0,0,1,.89,8.42Z"/><path class="cls-2" d="M300.6,404.12a72.24,72.24,0,0,1-1-8.4l-.72-8.41-.88-8.4-1-8.38q-2.25-16.74-5.79-33.26T283,304.51q-4.69-16.23-10.55-32.1l.16-.06q6.06,15.78,11,32T292,337.09q3.62,16.53,5.9,33.32L299,378.8l.9,8.41.73,8.43a70.39,70.39,0,0,1,.15,8.47Z"/><path class="cls-2" d="M331.93,476.92a74.58,74.58,0,0,1-.23-8.45l0-8.44-.15-8.44-.31-8.44c-.52-11.25-1.5-22.47-2.86-33.64s-3.15-22.31-5.34-33.35-4.74-22-7.71-32.9l.17-.05q4.65,16.26,8.12,32.83t5.59,33.36q2.16,16.78,3,33.71l.33,8.45.17,8.46v8.46a72.56,72.56,0,0,1-.59,8.45Z"/><path class="cls-2" d="M73.41,257.25a72.82,72.82,0,0,1-5.33-6.57l-4.86-6.93-4.71-7-4.58-7.11q-9-14.33-16.9-29.32T22.47,169.76Q15.8,154.22,10.3,138.21l.17-.06q5.7,15.91,12.55,31.37T37.77,199.9q7.95,14.91,16.95,29.2l4.59,7.09,4.72,7,4.86,6.9a72.34,72.34,0,0,1,4.66,7.06Z"/><path class="cls-2" d="M111.05,328.78A70.45,70.45,0,0,1,105,322.9l-5.67-6.29-5.53-6.39-5.41-6.51Q77.66,290.6,68,276.68T49.83,248.15q-8.52-14.62-15.93-29.84l.16-.07q7.61,15.09,16.28,29.6T68.69,276.2Q78.38,290,89.07,303.12l5.42,6.47L100,316l5.66,6.26a75.18,75.18,0,0,1,5.49,6.44Z"/><path class="cls-2" d="M145.09,397.37a71.77,71.77,0,0,1-6.39-5.55l-6-6-5.87-6.1-5.74-6.22Q109.74,361,99.38,347.59T79.74,320.05q-9.27-14.15-17.47-29l.15-.08q8.39,14.67,17.81,28.71T100,347.08c6.94,8.86,14.18,17.49,21.76,25.81l5.75,6.19,5.87,6.07,6,6a75.11,75.11,0,0,1,5.82,6.14Z"/><path class="cls-2" d="M175.24,466a73.38,73.38,0,0,1-6.68-5.21l-6.29-5.66-6.17-5.79-6.06-5.9Q138,431.54,127,418.71t-21.06-26.48q-10-13.64-19-28l.14-.09q9.14,14.22,19.29,27.74t21.21,26.28c7.39,8.49,15.08,16.73,23.09,24.64l6.06,5.88,6.17,5.75,6.29,5.64a73.14,73.14,0,0,1,6.13,5.82Z"/><path class="cls-2" d="M207.23,535.44a70,70,0,0,1-6.93-4.86l-6.58-5.32-6.47-5.45-6.36-5.58q-12.62-11.3-24.33-23.52t-22.41-25.34q-10.7-13.1-20.4-27l.15-.1Q123.77,452,134.61,465t22.56,25.14c7.82,8.09,15.93,15.92,24.34,23.4l6.36,5.55,6.47,5.42,6.58,5.3a74.26,74.26,0,0,1,6.42,5.5Z"/><path class="cls-3" d="M569.78,718.19q8,9.45,8,24.57,0,20.58-12.7,30.77t-31.61,10.18H477a6.11,6.11,0,0,1-6.3-6.3V643a6.12,6.12,0,0,1,6.3-6.3h55.65q17.64,0,27.62,9.66t10,26.46a37.12,37.12,0,0,1-5.46,19.95,31.25,31.25,0,0,1-15.54,12.81A38.36,38.36,0,0,1,569.78,718.19Zm-19.84-62.47q-6.83-6.62-19-6.62H484.1v52.5h46.83q11.34-.21,18.59-7.35t7.24-20.37Q556.76,662.33,549.94,655.72Zm5.67,108.46q8.7-7.14,8.71-21.42,0-14.7-8.92-21.63t-23-6.93H484.1v57.12h48.72Q546.89,771.32,555.61,764.18Z"/><path class="cls-3" d="M743.87,777.83a5.62,5.62,0,0,1-1.89,4.41,6.43,6.43,0,0,1-4.41,1.68,6.06,6.06,0,0,1-3.68-1.15,7.45,7.45,0,0,1-2.41-3l-15.75-38.43H647.48l-15.54,38.43q-1.68,4.2-5.67,4.2a6,6,0,0,1-4.41-1.47,6.15,6.15,0,0,1-1.68-4v-.63a6.37,6.37,0,0,1,.21-1.89l55.44-135.66a6.23,6.23,0,0,1,6.3-4.2,6,6,0,0,1,3.67,1.16,7.44,7.44,0,0,1,2.42,3l55.23,135A11.49,11.49,0,0,1,743.87,777.83ZM652.31,728.9h58.38l-29.4-71.82Z"/><path class="cls-3" d="M906.93,711.37a6.11,6.11,0,0,1,1.79,4.51v50.61a6.5,6.5,0,0,1-3.15,5.67,76.66,76.66,0,0,1-21,10.08,79.21,79.21,0,0,1-23.52,3.57q-21.42,0-38.64-9.87a71.9,71.9,0,0,1-27.09-27.09q-9.87-17.22-9.87-38.64t9.87-38.64a71.9,71.9,0,0,1,27.09-27.09q17.22-9.87,38.64-9.87a84.35,84.35,0,0,1,21.52,2.73,68.39,68.39,0,0,1,18.59,7.77,5.92,5.92,0,0,1,2.94,5.25,6.48,6.48,0,0,1-1.79,4.62,5.48,5.48,0,0,1-4.09,1.89,7,7,0,0,1-3.78-1,68.59,68.59,0,0,0-33.39-8.61,62.86,62.86,0,0,0-32,8.19A58.2,58.2,0,0,0,806.87,678a69.1,69.1,0,0,0,0,64.47A58.17,58.17,0,0,0,829,765a62.86,62.86,0,0,0,32,8.19,68,68,0,0,0,18.16-2.52,62.36,62.36,0,0,0,16.28-6.93V722.18H862.31a6.47,6.47,0,0,1-4.62-1.78,6.34,6.34,0,0,1,0-9,6.48,6.48,0,0,1,4.62-1.79h40.11A6.11,6.11,0,0,1,906.93,711.37Z"/><path class="cls-3" d="M1076,638.5a6.11,6.11,0,0,1,1.79,4.51V730a55.55,55.55,0,0,1-7.35,28.14,55,55,0,0,1-95.55,0A55.45,55.45,0,0,1,967.52,730V643a6.1,6.1,0,0,1,1.78-4.51,6.68,6.68,0,0,1,4.94-1.79,6.23,6.23,0,0,1,4.41,1.79,5.93,5.93,0,0,1,1.89,4.51V730a43,43,0,0,0,21.1,37.28,41.87,41.87,0,0,0,42.42,0,43.26,43.26,0,0,0,15.54-15.65,42.07,42.07,0,0,0,5.78-21.63V643a6.31,6.31,0,0,1,1.68-4.51,5.78,5.78,0,0,1,4.41-1.79A6.11,6.11,0,0,1,1076,638.5Z"/><path class="cls-3" d="M1231.59,773.21a6.23,6.23,0,0,1,1.79,4.41,5.78,5.78,0,0,1-1.79,4.41,6.33,6.33,0,0,1-4.51,1.68H1150a6.09,6.09,0,0,1-6.3-6.3V643a6.11,6.11,0,0,1,6.3-6.3h77.07a6.12,6.12,0,0,1,6.3,6.3,5.78,5.78,0,0,1-1.79,4.41,6.33,6.33,0,0,1-4.51,1.68h-70.14v52.71h60.69a6.12,6.12,0,0,1,6.3,6.3,5.78,5.78,0,0,1-1.79,4.41,6.33,6.33,0,0,1-4.51,1.68h-60.69v57.12h70.14A6,6,0,0,1,1231.59,773.21Z"/><path class="cls-3" d="M1387.62,638.39a5.78,5.78,0,0,1,1.79,4.41,5.46,5.46,0,0,1-1.79,4.31,6.57,6.57,0,0,1-4.51,1.57h-43.48V777.41a6,6,0,0,1-1.88,4.52,6.5,6.5,0,0,1-4.63,1.78,6.37,6.37,0,0,1-4.72-1.78,6.13,6.13,0,0,1-1.78-4.52V648.68h-43.47a6.32,6.32,0,0,1-4.52-1.68,5.78,5.78,0,0,1-1.79-4.41,5.53,5.53,0,0,1,1.79-4.2,6.32,6.32,0,0,1,4.52-1.68h100A6.33,6.33,0,0,1,1387.62,638.39Z"/><path class="cls-3" d="M1547.22,638.39a5.77,5.77,0,0,1,1.78,4.41,5.45,5.45,0,0,1-1.78,4.31,6.58,6.58,0,0,1-4.52,1.57h-43.47V777.41a6,6,0,0,1-1.89,4.52,6.47,6.47,0,0,1-4.62,1.78,6.37,6.37,0,0,1-4.72-1.78,6.13,6.13,0,0,1-1.79-4.52V648.68h-43.47a6.31,6.31,0,0,1-4.51-1.68,5.78,5.78,0,0,1-1.79-4.41,5.53,5.53,0,0,1,1.79-4.2,6.31,6.31,0,0,1,4.51-1.68h100A6.34,6.34,0,0,1,1547.22,638.39Z"/><path class="cls-3" d="M1690.23,773.21a6.26,6.26,0,0,1,1.78,4.41,5.81,5.81,0,0,1-1.78,4.41,6.36,6.36,0,0,1-4.52,1.68h-77.07a6.11,6.11,0,0,1-6.3-6.3V643a6.12,6.12,0,0,1,6.3-6.3h77.07a6.11,6.11,0,0,1,6.3,6.3,5.81,5.81,0,0,1-1.78,4.41,6.36,6.36,0,0,1-4.52,1.68h-70.14v52.71h60.69a6.11,6.11,0,0,1,6.3,6.3,5.81,5.81,0,0,1-1.78,4.41,6.36,6.36,0,0,1-4.52,1.68h-60.69v57.12h70.14A6,6,0,0,1,1690.23,773.21Z"/><path class="cls-3" d="M727.64,309.34q26.83,0,35.49,29a6.59,6.59,0,0,1,.9,3.53,5.24,5.24,0,0,1-2,3.88,5.91,5.91,0,0,1-4,1.79q-3.48,0-4.15-4.26a30.62,30.62,0,0,0-8.54-17.19q-7-7.06-17.74-7.07t-16.29,7.52a29.26,29.26,0,0,0-5.5,17.75,85,85,0,0,0,2.75,21,193.08,193.08,0,0,0,6.91,21.56q4.15,10.79,8.93,21.56t8.93,21.68Q743,455.33,743,475.49a65.28,65.28,0,0,1-11.11,36.9q-14.26,21.9-44.93,21.9-23.46,0-40.59-11.68t-17.13-33.47q0-21.78,13-37.62a105.56,105.56,0,0,1,11.56-11.79,6.73,6.73,0,0,1,4.27-1.91c3,0,4.49,1.23,4.49,3.7a6.21,6.21,0,0,1-1,3.48q-11.45,10.56-15.16,17.52-6.18,12.14-6.17,23.36t3.93,18a34.78,34.78,0,0,0,10.44,11.23q12.81,9,33.3,9t33.18-16.17Q732,494.09,732,474.15t-18.64-63.29q-18.64-43.35-18.65-60.25t8.09-29.08Q710.91,309.33,727.64,309.34Z"/><path class="cls-3" d="M798.32,429.62v-2.25a41.08,41.08,0,0,0-1.68-7.63,7.77,7.77,0,0,1,1.91-5.11,5.83,5.83,0,0,1,4.66-2.31c1.83,0,3.35,1.17,4.55,3.49a16.46,16.46,0,0,1,1.79,7.63q0,4.15-10.55,49.64T788.44,521c0,1.61.75,2.41,2.25,2.41q1.45,0,4.15-2.86c1.8-1.91,3.33-2.86,4.61-2.86q3.7,0,3.7,4.66t-7,8.14q-7,3.48-10.11,3.48-7.86,0-7.86-12.58a18.51,18.51,0,0,1,1.07-5.78,82.22,82.22,0,0,0,2.24-8.87q1.19-5.67,3.37-15.45t4.49-20.21q2.31-10.44,5.62-25.32T798.32,429.62Zm15.84-52.45q6.62,0,6.62,6.63,0,9.66-6.73,10.89a23.51,23.51,0,0,1-4.16.34,6.44,6.44,0,0,1-4.49-2.25,7.8,7.8,0,0,1-2.25-5.78q0-3.54,3.48-6.68A11,11,0,0,1,814.16,377.17Z"/><path class="cls-3" d="M933.22,440.74q0-11.13-6.06-11.12-8.08,0-30.88,46.38-10.34,21-14.44,31.73t-6.12,15.1a28,28,0,0,1-4,6.63,5.74,5.74,0,0,1-4.38,2.24c-1.61,0-2.57-.39-2.87-1.18a13.55,13.55,0,0,1-.45-4.26q0-3.09,9-53t10.45-52.5a9.4,9.4,0,0,1,2.53-3.32,8,8,0,0,1,4-.73,5.31,5.31,0,0,1,4.55,2.25,7.16,7.16,0,0,1,1.63,4,13.6,13.6,0,0,1-.45,3.42q-.8,3-2.36,7.53-5.4,15.39-10.33,43.57l-2.36,13.59q2.58-5.39,5.84-13t9.66-21.73a151.78,151.78,0,0,1,14.26-25.27q10.11-14.59,18.87-14.6,15.38,0,15.38,24.82a129.09,129.09,0,0,1-2.64,23.25q-2.64,13.92-5.84,30.43a179.31,179.31,0,0,0-3.54,27.29l-1.34,6.18a6.58,6.58,0,0,1-.73,3.54c-.49.71-2,1.06-4.38,1.06s-4.2-.45-5.28-1.35-1.44-2.5-1.07-4.83l11.23-67.15A128.46,128.46,0,0,0,933.22,440.74Z"/><path class="cls-3" d="M1072.17,417.6c2.47,0,3.7,1.26,3.7,3.76a21,21,0,0,1-1.34,7.36q-1.35,3.6-2.87,9.27t-4.32,17.35q-2.8,11.67-5.51,23.64t-5.22,23.86q-2.52,11.91-5,22.91a77.82,77.82,0,0,0,8.47-6.74q4.22-3.81,7.08-6.12t4.88-2.3c2.85,0,4.27,1.28,4.27,3.82a5.58,5.58,0,0,1-1.91,4.6q-14.27,10.9-24.14,18l-6.63,33.81q-6.73,34.25-17.18,46-8.31,9.21-19.26,9.21a25,25,0,0,1-18.42-7.47q-7.47-7.47-7.47-19.93,0-18,18.53-34.14,7.53-6.53,20.27-15.84t20.05-15.38q1-5.06,2.41-11.07t2.53-11q1.13-4.93,2.25-9.77c.74-3.21,1.44-6.29,2.08-9.21s1.21-5.42,1.74-7.52q-6.18,19.88-12.81,30.1-12.24,18.64-20.72,18.64a16.82,16.82,0,0,1-13.7-6.4q-5.22-6.4-5.22-17.07,0-19.65,7.41-41.61t20.44-37.85q13-15.88,28.53-15.89a27.31,27.31,0,0,1,14,3.6A6.7,6.7,0,0,1,1072.17,417.6Zm-33.81,128.14q-8.41,7-16.67,13.2a169.93,169.93,0,0,0-14.77,12.41q-14.38,13.81-14.38,26.11T997.93,613c1.58,1,4,1.46,7.19,1.46q9.89,0,16.68-10.72t13.08-39.81Zm-22.07-75.58q-7.12,19.65-7.13,36t8.54,16.33q7.52,0,17.35-14.48t15.72-34.65q5.89-20.16,8.93-31.33t4.16-15.22a13.32,13.32,0,0,0-8.88-3q-10.21,0-20.88,13.36T1016.29,470.16Z"/><path class="cls-3" d="M1130.59,531.7q-13.14,0-13.14-16.5t12.3-40.49a176.12,176.12,0,0,1,28.91-41.44q16.62-17.46,27.13-17.46t12,9.2c.29,1.88.52,3.86.67,6a4.35,4.35,0,0,1,2.47-.68q5.28,0,5.28,5.06v.89q0,.35-2.81,10.11t-6.4,32.57q-3.6,22.8-3.59,39c.67.45,1.46,1,2.35,1.52a28.32,28.32,0,0,1,3.37,2.58,5.27,5.27,0,0,1,2,4.1,6.63,6.63,0,0,1-1.46,4.21,5,5,0,0,1-4.16,1.85q-5.51,0-9.94-5.61a19.19,19.19,0,0,1-4.44-12.13q0-14,7.64-48.29a190.32,190.32,0,0,1-24.71,38.52q-15.15,18.52-20.94,22.8A20.7,20.7,0,0,1,1130.59,531.7Zm-1.69-16.06q0,4.15,3.48,4.16a5.66,5.66,0,0,0,4.16-1.68q23.25-20,41.67-55.37,10.44-20.22,11.06-23.25a26.56,26.56,0,0,0,.61-5.16,7.86,7.86,0,0,0-1.12-4,3.49,3.49,0,0,0-3.14-1.91c-1.35,0-3.33.72-6,2.14q-8.64,4.71-21.28,20.1a156.79,156.79,0,0,0-21.05,33.47Q1128.9,502.17,1128.9,515.64Z"/><path class="cls-3" d="M1288.17,446.58q16.39-31.44,35.49-31.45,10,0,14.38,5.9t4.38,17.46a162.63,162.63,0,0,1-6.07,43.29q-6.06,22.08-18.14,37.51t-28.46,15.45q-6.3,0-10.11-2.7t-6.18-9.1q-5.73,26.05-10.84,51.83T1252,621.44c-1.5,3.06-3.63,4.6-6.4,4.6-2.32,0-3.63-1.54-3.93-4.6q7.41-29.1,11.9-52.56t6.91-36q2.41-12.58,6.85-36.11t14.32-73.61v-5.06a6.09,6.09,0,0,1,2.08-4.32,6.59,6.59,0,0,1,4.83-2.08,4.39,4.39,0,0,1,4,2.13,8,8,0,0,1,1.29,4.1,16.62,16.62,0,0,1-.34,3.54q-.33,1.57-.78,3.09c-.3,1-.6,2-.9,3a13,13,0,0,0-.56,2.58Zm-9.88,59.63q0,17.64,13,17.63,12.12,0,22.23-15.05,12.92-19.31,17.07-51.43a122.87,122.87,0,0,0,1.24-17.07q0-14.82-7.3-14.83t-17,10.67a113.38,113.38,0,0,0-21.39,35.38Q1278.29,492,1278.29,506.21Z"/><path class="cls-3" d="M1441.72,415.58q21.22,0,21.22,32.12,0,25.05-13.81,53.79-9.33,19.32-22.46,27.86a25.24,25.24,0,0,1-13.93,4.38q-12.69,0-18.19-10.11a44.84,44.84,0,0,1-5.5-21.79,119.64,119.64,0,0,1,7-40.54q7-19.65,19.1-32.68T1441.72,415.58Zm-30.1,37.17q-12.13,24.27-12.13,47.4,0,16.05,8.87,21.56a11.45,11.45,0,0,0,6.18,1.68q7.18,0,16.06-12.46t14.94-30.72q6.06-18.24,6.06-31.33t-1.52-16.57a11,11,0,0,0-3.48-4.82q-2-1.35-6.51-1.35t-9.94,3.59Q1419.71,436.47,1411.62,452.75Z"/><path class="cls-3" d="M1513.5,531.25l5.17-27.4q4-21,5.5-29.81t3.31-19.43q1.86-10.62,7.58-30.49a2.76,2.76,0,0,1-.22-1V422c0-3.59,1.38-6.17,4.16-7.75a4.74,4.74,0,0,1,2.58-.78q4.83,0,4.83,7,0,4.05-3.26,14.54a194.05,194.05,0,0,0-5.05,19.49c1-1.72,2.34-3.89,3.87-6.52s4-6.43,7.3-11.45a74.85,74.85,0,0,1,12.58-14.32q7.58-6.79,15.5-6.79t12.07,4.26a4.84,4.84,0,0,1,1.57,3.71,5.29,5.29,0,0,1-2,4,6.23,6.23,0,0,1-4.15,1.8,8.11,8.11,0,0,1-4.16-1.18,8.73,8.73,0,0,0-4.49-1.18q-2.48,0-7.86,4-21.46,15.61-35.38,61.88a169.46,169.46,0,0,0-4.49,17c-.53,3.11-1,5.63-1.35,7.58q-3.37,18.07-10.33,18.08Q1513.51,535.41,1513.5,531.25Z"/><path class="cls-3" d="M1678.61,512.84q3.93,0,3.93,4.15,0,4.83-11.79,10.9T1651.1,534q-7.86,0-11.79-2.58a19.27,19.27,0,0,1-6.41-7.19q-4.83-9-4.82-21.68a131,131,0,0,1,6.73-42.33q6.75-19.89,18-33T1677,414.12a12.6,12.6,0,0,1,11,5.79,23.4,23.4,0,0,1,4,13.64q0,14.71-7.7,24.93a62.92,62.92,0,0,1-18.92,16.73,197.61,197.61,0,0,1-25.83,12.36l-.45,16.51q0,19.31,11.68,19.31a28.24,28.24,0,0,0,13.2-3.65l9.94-5.27A11,11,0,0,1,1678.61,512.84Zm2.81-78.84q0-9-7.52-9-6.75,0-15.84,12.13t-15,32a40.7,40.7,0,0,0-1.68,7.3q4.49-2.47,9.21-4.72c3.14-1.49,6.21-3.07,9.21-4.71q10.32-5.73,16-13.42T1681.42,434Z"/><rect class="cls-4" x="469.53" y="837.14" width="425.47" height="17.59"/><rect class="cls-5" x="895.01" y="837.14" width="425.47" height="17.59"/><rect class="cls-6" x="1267.18" y="837.13" width="425.47" height="17.59"/></svg>