<svg id="Calque_1" data-name="Calque 1" xmlns="http://www.w3.org/2000/svg" viewBox="0 0 2000 2000"><defs><style>.cls-1{fill:#c59635;}.cls-2{fill:#c49135;}.cls-3{fill:#fff;}.cls-4{fill:#3a64ad;}.cls-5{fill:#bf1728;}</style></defs><title>Logo blanc </title><path class="cls-1" d="M721,813.69c-3-8.13-6-16.36-6.9-25s.44-17.78,5.54-24.78a46.53,46.53,0,0,1,10-9.42A183.75,183.75,0,0,1,771,731.1a111.35,111.35,0,0,1,5.16,30.51c.15,5.36-.11,10.82-1.93,15.86-3,8.25-9.75,14.47-16.59,20-10.06,8.08-21.55,15.61-34.45,16.14"/><path class="cls-1" d="M697.72,868.32c1.68-8.49,3.38-17.09,7.07-24.92s9.61-15,17.6-18.3a46.41,46.41,0,0,1,13.42-2.86,184.1,184.1,0,0,1,47.59,1.5A111.53,111.53,0,0,1,772,852.5c-2.66,4.65-5.72,9.19-9.89,12.55-6.82,5.51-15.85,7.3-24.54,8.44-12.8,1.68-26.53,2.15-37.82-4.09"/><path class="cls-1" d="M661.67,937.3c1.67-8.49,3.38-17.09,7.07-24.92s9.61-15,17.6-18.3a46.41,46.41,0,0,1,13.42-2.86,183.66,183.66,0,0,1,47.59,1.51,111.28,111.28,0,0,1-11.44,28.75c-2.65,4.65-5.71,9.19-9.88,12.55-6.82,5.51-15.85,7.3-24.54,8.44-12.8,1.68-26.53,2.15-37.82-4.09"/><path class="cls-1" d="M628.23,1004.61c1.68-8.49,3.38-17.09,7.07-24.92s9.61-15,17.6-18.3a46.41,46.41,0,0,1,13.42-2.86A183.66,183.66,0,0,1,713.91,960a111.61,111.61,0,0,1-11.43,28.75c-2.66,4.65-5.72,9.19-9.89,12.55-6.82,5.51-15.85,7.3-24.54,8.44-12.8,1.68-26.53,2.15-37.82-4.09"/><path class="cls-1" d="M597.88,1072.52c1.67-8.49,3.38-17.08,7.07-24.92s9.61-15,17.6-18.29c4.23-1.78,8.85-2.42,13.42-2.87a183.57,183.57,0,0,1,47.58,1.51,110.9,110.9,0,0,1-11.43,28.75c-2.65,4.66-5.71,9.19-9.88,12.56-6.82,5.5-15.85,7.29-24.54,8.43-12.8,1.68-26.53,2.15-37.83-4.09"/><path class="cls-1" d="M566.25,1145.12c1.68-8.49,3.38-17.09,7.07-24.92s9.61-15,17.6-18.3a46.47,46.47,0,0,1,13.43-2.86,183.6,183.6,0,0,1,47.58,1.5,111.53,111.53,0,0,1-11.43,28.76c-2.66,4.65-5.72,9.19-9.89,12.55-6.82,5.5-15.85,7.3-24.54,8.44-12.79,1.68-26.53,2.15-37.82-4.09"/><path class="cls-1" d="M682.13,860.21c-7.07-5-14.21-10.08-19.85-16.65s-9.71-14.9-9.48-23.55c.11-4.59,1.42-9.07,2.88-13.42a183.8,183.8,0,0,1,20.85-42.8A111.72,111.72,0,0,1,698.09,786c3.16,4.33,6,9,7.4,14.16,2.23,8.48.17,17.45-2.34,25.85-3.71,12.36-8.9,25.08-19.22,32.83"/><path class="cls-1" d="M647.42,930.42c-7.2-4.81-14.47-9.69-20.29-16.11S617,899.68,617,891a46.69,46.69,0,0,1,2.52-13.5,183.67,183.67,0,0,1,19.7-43.34,111.13,111.13,0,0,1,22.14,21.61c3.28,4.24,6.29,8.81,7.79,14,2.45,8.42.64,17.45-1.65,25.91-3.38,12.45-8.22,25.31-18.33,33.33"/><path class="cls-1" d="M612.42,997.62c-7.27-4.69-14.63-9.45-20.55-15.76s-10.35-14.46-10.51-23.11c-.08-4.6,1-9.12,2.29-13.54a184.31,184.31,0,0,1,19-43.67,111.18,111.18,0,0,1,22.51,21.24c3.35,4.19,6.43,8.7,8,13.82,2.6,8.37.93,17.43-1.22,25.93-3.16,12.51-7.79,25.44-17.76,33.64"/><path class="cls-1" d="M583.75,1067.32c-7.63-4.08-15.36-8.21-21.78-14s-11.51-13.55-12.38-22.16a46.45,46.45,0,0,1,1.17-13.68A183.78,183.78,0,0,1,566,972.38a110.77,110.77,0,0,1,24.19,19.31c3.68,3.89,7.13,8.13,9.13,13.1,3.28,8.13,2.37,17.29.93,25.94-2.12,12.73-5.66,26-14.92,35"/><path class="cls-1" d="M553.47,1140.51c-7.64-4.08-15.36-8.21-21.78-14s-11.51-13.55-12.38-22.16c-.47-4.57.27-9.17,1.16-13.68a184.22,184.22,0,0,1,15.29-45.08,111,111,0,0,1,24.19,19.3c3.68,3.9,7.12,8.14,9.13,13.11,3.28,8.13,2.37,17.29.93,25.94-2.12,12.73-5.67,26-14.92,35"/><path class="cls-2" d="M494.51,1415.18a1333.81,1333.81,0,0,1,46-193.9q8.63-27.09,18.43-53.79c.94-2.59-12.25-1.21-13.57,2.38a1329,1329,0,0,0-54.28,191.55q-5.7,28-10.19,56.14c-.54,3.35,13,1,13.56-2.38Z"/><path class="cls-2" d="M774.6,719.36C776.38,712.15,780,705.7,783,699l4.8-9.89,5-9.81c6.72-13,13.81-25.85,21.4-38.39s15.6-24.8,24-36.78,17.39-23.57,26.73-34.84l.28.22q-13.68,17.16-26,35.3t-23.58,37q-11.17,18.87-21.17,38.39l-4.9,9.8-4.75,9.88-4.6,10c-.75,1.66-1.52,3.32-2.38,4.93a43.4,43.4,0,0,1-2.83,4.75Z"/><path class="cls-2" d="M678.89,755.63a71.36,71.36,0,0,1,2.33-8.14l2.89-8,3-7.9,3.2-7.83q6.57-15.59,14.32-30.65t16.66-29.44q8.91-14.38,18.86-28.07l.15.11q-9.76,13.79-18.5,28.27t-16.42,29.51c-5.11,10-9.87,20.25-14.2,30.64L688.05,732l-3,7.88-2.87,7.94a72.24,72.24,0,0,1-3.11,7.87Z"/><path class="cls-2" d="M637.13,824.74a70.87,70.87,0,0,1,1.61-8.31l2.19-8.18,2.35-8.13,2.51-8.08q5.18-16.11,11.59-31.78t14-30.78q7.62-15.11,16.34-29.61l.16.09q-8.53,14.6-16,29.78t-13.78,30.83q-6.33,15.66-11.48,31.76l-2.48,8.07-2.33,8.11-2.16,8.16a72.47,72.47,0,0,1-2.41,8.11Z"/><path class="cls-2" d="M600.89,894.9a71.94,71.94,0,0,1,.88-8.42l1.47-8.33,1.63-8.31,1.79-8.26q3.76-16.5,8.78-32.68T626.74,797q6.27-15.71,13.7-30.91l.16.08q-7.23,15.27-13.31,31.05t-11,31.92c-3.28,10.77-6.2,21.65-8.66,32.63L605.81,870l-1.61,8.29-1.44,8.31a74.31,74.31,0,0,1-1.7,8.29Z"/><path class="cls-2" d="M565.37,965.67a72.52,72.52,0,0,1,.14-8.47l.74-8.43.9-8.41,1.07-8.39q2.29-16.77,5.89-33.32t8.48-32.75q4.88-16.2,10.95-32l.17.06q-5.87,15.85-10.55,32.1t-8.23,32.76c-2.33,11-4.29,22.1-5.78,33.26l-1,8.38-.88,8.4-.71,8.41a74.5,74.5,0,0,1-1,8.4Z"/><path class="cls-2" d="M534,1038.49a72.56,72.56,0,0,1-.59-8.45v-8.46l.16-8.46.33-8.45q.84-16.9,3-33.71t5.58-33.36q3.45-16.56,8.13-32.83l.17.05q-4.45,16.3-7.71,32.9t-5.34,33.35c-1.37,11.17-2.35,22.39-2.87,33.64l-.31,8.44-.14,8.44,0,8.44a74.58,74.58,0,0,1-.23,8.45Z"/><path class="cls-2" d="M792.59,818.71a76.19,76.19,0,0,1,4.66-7.06l4.86-6.9,4.72-7,4.59-7.09q9-14.26,17-29.2t14.75-30.38q6.84-15.45,12.56-31.37l.16.06q-5.51,16-12.17,31.55t-14.56,30.53q-7.86,15-16.9,29.32l-4.57,7.11-4.72,7-4.86,6.93a69.53,69.53,0,0,1-5.33,6.57Z"/><path class="cls-2" d="M755,890.22a73.68,73.68,0,0,1,5.49-6.44l5.67-6.26,5.54-6.37,5.41-6.47q10.71-13.06,20.38-26.92T815.8,809.4q8.67-14.49,16.28-29.6l.16.07q-7.41,15.21-15.93,29.84t-18.17,28.53q-9.63,13.9-20.34,27l-5.41,6.51-5.54,6.39-5.67,6.29a70.45,70.45,0,0,1-6.09,5.88Z"/><path class="cls-2" d="M720.93,958.8a75,75,0,0,1,5.81-6.14l6-5.95,5.86-6.07,5.75-6.19c7.58-8.32,14.83-17,21.76-25.81s13.55-18,19.81-27.36,12.22-18.93,17.81-28.71l.15.08q-8.19,14.79-17.46,29t-19.64,27.54q-10.35,13.4-21.73,25.93l-5.75,6.22-5.86,6.1-6,6a71.77,71.77,0,0,1-6.39,5.55Z"/><path class="cls-2" d="M690.79,1027.45a73.14,73.14,0,0,1,6.13-5.82l6.29-5.64,6.17-5.75,6.07-5.88c8-7.91,15.69-16.15,23.08-24.64s14.47-17.26,21.21-26.28,13.2-18.26,19.29-27.74l.15.09q-9,14.34-19,28t-21.05,26.48q-11,12.83-23.06,24.76l-6.06,5.9-6.18,5.79-6.29,5.66a73.24,73.24,0,0,1-6.67,5.21Z"/><path class="cls-2" d="M658.8,1096.86a74.39,74.39,0,0,1,6.43-5.5l6.57-5.3,6.47-5.42,6.36-5.55c8.42-7.48,16.52-15.31,24.35-23.4s15.35-16.48,22.55-25.14,14.14-17.54,20.72-26.69l.14.1q-9.71,13.85-20.4,27t-22.41,25.34q-11.69,12.24-24.32,23.52l-6.36,5.58-6.47,5.45-6.58,5.32a71.3,71.3,0,0,1-6.94,4.86Z"/><path class="cls-1" d="M295.44,814.72c3-8.12,6-16.35,6.9-25S301.9,772,296.8,765a46.28,46.28,0,0,0-10-9.42,183.37,183.37,0,0,0-41.45-23.42,111.29,111.29,0,0,0-5.16,30.51c-.15,5.35.11,10.82,1.93,15.86,3,8.24,9.75,14.47,16.59,20,10.06,8.07,21.55,15.61,34.45,16.14"/><path class="cls-1" d="M318.68,869.36c-1.68-8.5-3.38-17.09-7.07-24.92s-9.61-15-17.6-18.3a46.41,46.41,0,0,0-13.42-2.86,183.66,183.66,0,0,0-47.59,1.5,111.2,111.2,0,0,0,11.44,28.76c2.65,4.65,5.71,9.19,9.88,12.55,6.82,5.5,15.85,7.3,24.54,8.44,12.8,1.68,26.53,2.15,37.82-4.09"/><path class="cls-1" d="M354.73,938.34c-1.67-8.5-3.38-17.09-7.07-24.92s-9.61-15-17.6-18.3a46.41,46.41,0,0,0-13.42-2.86,183.66,183.66,0,0,0-47.59,1.5,111.2,111.2,0,0,0,11.44,28.76c2.65,4.65,5.71,9.19,9.88,12.55,6.82,5.5,15.85,7.3,24.54,8.44,12.8,1.68,26.53,2.15,37.82-4.09"/><path class="cls-1" d="M388.17,1005.65c-1.68-8.5-3.38-17.09-7.07-24.92s-9.61-15-17.6-18.3a46.41,46.41,0,0,0-13.42-2.86,183.66,183.66,0,0,0-47.59,1.5,111.2,111.2,0,0,0,11.44,28.76c2.65,4.65,5.71,9.19,9.88,12.55,6.82,5.5,15.85,7.3,24.54,8.44,12.8,1.68,26.53,2.15,37.82-4.09"/><path class="cls-1" d="M418.52,1073.56c-1.67-8.49-3.38-17.09-7.07-24.92s-9.61-15-17.6-18.3a46.34,46.34,0,0,0-13.42-2.86,183.57,183.57,0,0,0-47.58,1.5,110.82,110.82,0,0,0,11.43,28.76c2.65,4.65,5.71,9.19,9.88,12.55,6.82,5.5,15.85,7.3,24.54,8.44,12.8,1.68,26.53,2.15,37.83-4.09"/><path class="cls-1" d="M450.15,1146.16c-1.68-8.5-3.38-17.09-7.07-24.92s-9.61-15-17.6-18.3a46.4,46.4,0,0,0-13.43-2.86,183.6,183.6,0,0,0-47.58,1.5,111.53,111.53,0,0,0,11.43,28.76c2.66,4.65,5.72,9.19,9.89,12.55,6.82,5.5,15.85,7.3,24.54,8.44,12.79,1.68,26.53,2.15,37.82-4.09"/><path class="cls-1" d="M334.27,861.24c7.07-5,14.21-10.08,19.85-16.65s9.71-14.89,9.48-23.54c-.11-4.6-1.42-9.07-2.88-13.42a183.4,183.4,0,0,0-20.85-42.8A111.45,111.45,0,0,0,318.31,787c-3.16,4.33-6,9-7.4,14.16-2.23,8.47-.17,17.45,2.34,25.84,3.71,12.36,8.9,25.08,19.22,32.83"/><path class="cls-1" d="M369,931.46c7.2-4.82,14.47-9.7,20.29-16.11s10.11-14.63,10.12-23.29a46.62,46.62,0,0,0-2.52-13.49,183.67,183.67,0,0,0-19.7-43.34A110.86,110.86,0,0,0,355,856.84c-3.28,4.24-6.29,8.81-7.79,13.95-2.45,8.42-.64,17.44,1.65,25.9,3.38,12.46,8.22,25.32,18.33,33.34"/><path class="cls-1" d="M404,998.66c7.27-4.69,14.63-9.45,20.55-15.77s10.35-14.45,10.51-23.11a46.71,46.71,0,0,0-2.29-13.53,184,184,0,0,0-19-43.67,111.18,111.18,0,0,0-22.51,21.24c-3.35,4.18-6.43,8.7-8,13.82-2.6,8.37-.93,17.42,1.22,25.92,3.16,12.51,7.79,25.45,17.76,33.64"/><path class="cls-1" d="M432.65,1068.36c7.63-4.08,15.36-8.21,21.78-14s11.51-13.55,12.38-22.16a46.42,46.42,0,0,0-1.17-13.68,183.85,183.85,0,0,0-15.28-45.09,111.37,111.37,0,0,0-24.19,19.31c-3.68,3.9-7.13,8.14-9.13,13.11-3.28,8.13-2.37,17.29-.93,25.94,2.12,12.73,5.66,26,14.92,35"/><path class="cls-1" d="M462.93,1141.55c7.64-4.08,15.36-8.21,21.78-14s11.51-13.55,12.38-22.16c.47-4.57-.27-9.18-1.16-13.68a184.15,184.15,0,0,0-15.29-45.09,111.37,111.37,0,0,0-24.19,19.31c-3.68,3.9-7.12,8.14-9.13,13.11-3.28,8.13-2.37,17.29-.93,25.94,2.12,12.73,5.67,26,14.93,35"/><path class="cls-2" d="M535.54,1415.56a1332.38,1332.38,0,0,0-46-193.89q-8.62-27.09-18.42-53.79c-1.22-3.32-14.78.85-13.74,3.68a1329,1329,0,0,1,54.28,191.55q5.7,28,10.19,56.14c.46,2.87,14.31-.11,13.74-3.69Z"/><path class="cls-2" d="M241.48,720.54a45,45,0,0,1-2.83-4.75c-.86-1.62-1.63-3.27-2.38-4.94l-4.6-9.94L226.92,691l-4.9-9.8q-10-19.53-21.16-38.39t-23.59-37q-12.37-18.11-26-35.3l.28-.22q14,16.9,26.73,34.84t24,36.78c7.59,12.54,14.68,25.37,21.4,38.39l4.95,9.81,4.8,9.89c3,6.67,6.58,13.11,8.36,20.33Z"/><path class="cls-2" d="M337.35,756.72a71.3,71.3,0,0,1-3.11-7.86l-2.87-7.94-3-7.89-3.18-7.82c-4.33-10.39-9.09-20.6-14.2-30.63s-10.58-19.88-16.42-29.51-12-19.08-18.5-28.28l.15-.1q9.93,13.68,18.86,28.07t16.66,29.44q7.77,15,14.32,30.65l3.2,7.83,3.05,7.89,2.89,8a70.78,70.78,0,0,1,2.33,8.14Z"/><path class="cls-2" d="M379.1,825.82a75.3,75.3,0,0,1-2.41-8.11l-2.16-8.16-2.33-8.11-2.48-8.07c-3.41-10.73-7.26-21.32-11.47-31.76s-8.82-20.73-13.79-30.83-10.28-20-16-29.78l.16-.09q8.7,14.49,16.34,29.6t14,30.78q6.44,15.66,11.59,31.79l2.51,8.08,2.35,8.13,2.19,8.17a70.64,70.64,0,0,1,1.61,8.32Z"/><path class="cls-2" d="M415.34,896a73.68,73.68,0,0,1-1.7-8.28l-1.44-8.32-1.61-8.29-1.77-8.25c-2.46-11-5.38-21.87-8.66-32.64s-7-21.41-11.05-31.91-8.49-20.87-13.31-31.06l.16-.07q7.41,15.2,13.7,30.91T401,829.94q5,16.15,8.78,32.67l1.79,8.27,1.63,8.3,1.47,8.34a71.94,71.94,0,0,1,.88,8.42Z"/><path class="cls-2" d="M450.86,966.72a74.94,74.94,0,0,1-1-8.41l-.71-8.41-.88-8.39-1.05-8.38c-1.49-11.16-3.45-22.25-5.78-33.27s-5.08-21.94-8.23-32.75-6.64-21.53-10.55-32.1l.17-.06q6.06,15.78,10.95,32t8.48,32.75q3.61,16.53,5.9,33.31l1.06,8.4.9,8.41.74,8.43a72.45,72.45,0,0,1,.14,8.47Z"/><path class="cls-2" d="M482.19,1039.52a74.65,74.65,0,0,1-.23-8.45l0-8.44-.14-8.45-.31-8.43c-.52-11.25-1.5-22.47-2.87-33.65s-3.14-22.3-5.34-33.35-4.74-22-7.71-32.89l.17-.05q4.67,16.26,8.13,32.83T479.49,972q2.16,16.79,3,33.7l.33,8.46.16,8.46v8.46a72.56,72.56,0,0,1-.59,8.45Z"/><path class="cls-2" d="M223.67,819.85a70,70,0,0,1-5.33-6.58l-4.86-6.93-4.72-7-4.57-7.12q-9-14.33-16.9-29.31t-14.56-30.53q-6.67-15.55-12.17-31.55l.16-.06q5.7,15.91,12.56,31.37T188,762.5Q196,777.41,205,791.7l4.59,7.09,4.72,7,4.86,6.9a73,73,0,0,1,4.66,7.06Z"/><path class="cls-2" d="M261.31,891.38a72,72,0,0,1-6.09-5.88l-5.67-6.29-5.54-6.4-5.41-6.5q-10.68-13.12-20.34-27t-18.17-28.53q-8.52-14.61-15.93-29.83l.16-.08q7.59,15.1,16.28,29.61T219,838.79c6.46,9.22,13.24,18.22,20.38,26.92l5.41,6.48,5.54,6.37,5.67,6.26a73.68,73.68,0,0,1,5.49,6.44Z"/><path class="cls-2" d="M295.35,960a71.88,71.88,0,0,1-6.39-5.56l-6-6-5.86-6.1-5.75-6.21Q260,923.58,249.63,910.19T230,882.65q-9.27-14.16-17.46-29l.15-.09q8.38,14.68,17.81,28.72t19.81,27.35q10.4,13.3,21.76,25.82l5.75,6.18,5.86,6.08,6,6a73.4,73.4,0,0,1,5.81,6.14Z"/><path class="cls-2" d="M325.49,1028.62a69.87,69.87,0,0,1-6.67-5.21l-6.29-5.66-6.18-5.78-6.06-5.9q-12-11.94-23.06-24.76t-21.05-26.48q-10-13.65-19-28l.15-.1q9.13,14.22,19.29,27.75t21.21,26.28c7.39,8.49,15.07,16.73,23.08,24.64l6.07,5.88,6.17,5.75,6.29,5.63a74.93,74.93,0,0,1,6.13,5.83Z"/><path class="cls-2" d="M357.49,1098a71.21,71.21,0,0,1-6.94-4.85l-6.58-5.32-6.47-5.46-6.36-5.57q-12.6-11.3-24.32-23.52T284.41,1028q-10.7-13.11-20.4-27l.15-.1q9.85,13.71,20.71,26.69t22.55,25.14q11.74,12.13,24.35,23.39l6.36,5.56,6.47,5.42,6.57,5.3a74.27,74.27,0,0,1,6.43,5.49Z"/><path class="cls-3" d="M720,1280.79q8,9.45,8,24.57,0,20.58-12.71,30.76t-31.6,10.19H627.22a6.11,6.11,0,0,1-6.3-6.3v-134.4a6.09,6.09,0,0,1,6.3-6.3h55.65q17.64,0,27.61,9.66t10,26.46a37.12,37.12,0,0,1-5.46,20,31.25,31.25,0,0,1-15.54,12.81A38.36,38.36,0,0,1,720,1280.79Zm-19.85-62.48q-6.83-6.61-19-6.61H634.36v52.5h46.83q11.34-.21,18.58-7.35t7.25-20.37Q707,1224.93,700.19,1218.31Zm5.67,108.47q8.71-7.14,8.72-21.42,0-14.7-8.93-21.63t-23-6.93h-48.3v57.12h48.72Q697.15,1333.92,705.86,1326.78Z"/><path class="cls-3" d="M894.13,1340.43a5.62,5.62,0,0,1-1.89,4.41,6.43,6.43,0,0,1-4.41,1.68,6.07,6.07,0,0,1-3.68-1.16,7.33,7.33,0,0,1-2.41-3L866,1303.89H797.74l-15.54,38.43q-1.69,4.2-5.67,4.2a6,6,0,0,1-4.41-1.47,6.1,6.1,0,0,1-1.68-4v-.63a6.05,6.05,0,0,1,.21-1.89l55.44-135.66a6.23,6.23,0,0,1,6.3-4.2,6,6,0,0,1,3.67,1.15,7.47,7.47,0,0,1,2.42,3.05l55.23,135A12.14,12.14,0,0,1,894.13,1340.43Zm-91.56-48.93H861l-29.4-71.82Z"/><path class="cls-3" d="M1057.19,1274a6.13,6.13,0,0,1,1.78,4.52v50.61a6.49,6.49,0,0,1-3.14,5.67,76.8,76.8,0,0,1-21,10.08,79.28,79.28,0,0,1-23.53,3.57q-21.4,0-38.63-9.87a71.83,71.83,0,0,1-27.09-27.09q-9.89-17.22-9.87-38.64t9.87-38.64a71.83,71.83,0,0,1,27.09-27.09q17.21-9.87,38.63-9.87a84.43,84.43,0,0,1,21.53,2.73,68.39,68.39,0,0,1,18.59,7.77,5.92,5.92,0,0,1,2.94,5.25,6.48,6.48,0,0,1-1.79,4.62,5.5,5.5,0,0,1-4.1,1.89,6.93,6.93,0,0,1-3.77-1,68.6,68.6,0,0,0-33.4-8.61,62.82,62.82,0,0,0-32,8.19,58.1,58.1,0,0,0-22.15,22.57,69.1,69.1,0,0,0,0,64.47,58.13,58.13,0,0,0,22.15,22.58,62.82,62.82,0,0,0,32,8.19,68.1,68.1,0,0,0,18.17-2.52,62.51,62.51,0,0,0,16.28-6.93v-41.58h-33.18A6.47,6.47,0,0,1,1008,1283a6.31,6.31,0,0,1,0-9,6.46,6.46,0,0,1,4.62-1.78h40.11A6.12,6.12,0,0,1,1057.19,1274Z"/><path class="cls-3" d="M1226.24,1201.09a6.13,6.13,0,0,1,1.78,4.52v86.94a55.55,55.55,0,0,1-7.35,28.14,55,55,0,0,1-95.55,0,55.55,55.55,0,0,1-7.35-28.14v-86.94a6.13,6.13,0,0,1,1.79-4.52,6.69,6.69,0,0,1,4.93-1.78,6.26,6.26,0,0,1,4.41,1.78,6,6,0,0,1,1.89,4.52v86.94a42.91,42.91,0,0,0,21.11,37.27,40.73,40.73,0,0,0,21.1,5.78,41.14,41.14,0,0,0,21.32-5.78,43.23,43.23,0,0,0,15.54-15.64,42.06,42.06,0,0,0,5.77-21.63v-86.94a6.34,6.34,0,0,1,1.68-4.52,5.81,5.81,0,0,1,4.41-1.78A6.17,6.17,0,0,1,1226.24,1201.09Z"/><path class="cls-3" d="M1381.85,1335.81a6.22,6.22,0,0,1,1.78,4.41,5.77,5.77,0,0,1-1.78,4.41,6.34,6.34,0,0,1-4.52,1.68h-77.07a6.12,6.12,0,0,1-6.3-6.3v-134.4a6.11,6.11,0,0,1,6.3-6.3h77.07a6.09,6.09,0,0,1,6.3,6.3,5.77,5.77,0,0,1-1.78,4.41,6.34,6.34,0,0,1-4.52,1.68h-70.14v52.71h60.69a6.09,6.09,0,0,1,6.3,6.3,5.77,5.77,0,0,1-1.78,4.41,6.34,6.34,0,0,1-4.52,1.68h-60.69v57.12h70.14A6,6,0,0,1,1381.85,1335.81Z"/><path class="cls-3" d="M1537.88,1201a5.81,5.81,0,0,1,1.78,4.41,5.46,5.46,0,0,1-1.78,4.3,6.59,6.59,0,0,1-4.52,1.58h-43.47V1340a5.93,5.93,0,0,1-1.89,4.51,6.48,6.48,0,0,1-4.62,1.79,6.36,6.36,0,0,1-4.72-1.79,6.11,6.11,0,0,1-1.79-4.51V1211.28H1433.4a6.31,6.31,0,0,1-4.51-1.68,5.78,5.78,0,0,1-1.79-4.41,5.53,5.53,0,0,1,1.79-4.2,6.31,6.31,0,0,1,4.51-1.68h100A6.34,6.34,0,0,1,1537.88,1201Z"/><path class="cls-3" d="M1697.47,1201a5.78,5.78,0,0,1,1.79,4.41,5.44,5.44,0,0,1-1.79,4.3,6.56,6.56,0,0,1-4.51,1.58h-43.47V1340a5.93,5.93,0,0,1-1.89,4.51,6.48,6.48,0,0,1-4.62,1.79,6.4,6.4,0,0,1-4.73-1.79,6.1,6.1,0,0,1-1.78-4.51V1211.28H1593a6.34,6.34,0,0,1-4.52-1.68,5.77,5.77,0,0,1-1.78-4.41,5.52,5.52,0,0,1,1.78-4.2,6.34,6.34,0,0,1,4.52-1.68h100A6.31,6.31,0,0,1,1697.47,1201Z"/><path class="cls-3" d="M1840.48,1335.81a6.23,6.23,0,0,1,1.79,4.41,5.78,5.78,0,0,1-1.79,4.41,6.31,6.31,0,0,1-4.51,1.68H1758.9a6.11,6.11,0,0,1-6.3-6.3v-134.4a6.09,6.09,0,0,1,6.3-6.3H1836a6.11,6.11,0,0,1,6.3,6.3,5.78,5.78,0,0,1-1.79,4.41,6.31,6.31,0,0,1-4.51,1.68h-70.14v52.71h60.69a6.11,6.11,0,0,1,6.3,6.3,5.78,5.78,0,0,1-1.79,4.41,6.33,6.33,0,0,1-4.51,1.68h-60.69v57.12H1836A5.93,5.93,0,0,1,1840.48,1335.81Z"/><path class="cls-3" d="M877.9,871.94q26.83,0,35.48,29a6.65,6.65,0,0,1,.9,3.54,5.2,5.2,0,0,1-2,3.87,5.93,5.93,0,0,1-4,1.8q-3.48,0-4.16-4.27a30.55,30.55,0,0,0-8.53-17.18q-7-7.08-17.74-7.07t-16.29,7.52a29.23,29.23,0,0,0-5.5,17.74,84.54,84.54,0,0,0,2.75,21,191.68,191.68,0,0,0,6.91,21.56q4.15,10.79,8.92,21.56t8.93,21.68q9.66,25.26,9.66,45.42A65.18,65.18,0,0,1,882.16,1075q-14.26,21.9-44.92,21.9-23.47,0-40.6-11.68t-17.12-33.46q0-21.79,13-37.62a106.6,106.6,0,0,1,11.57-11.8,6.78,6.78,0,0,1,4.27-1.91q4.49,0,4.49,3.71a6.34,6.34,0,0,1-1,3.48q-11.46,10.56-15.16,17.52-6.18,12.14-6.18,23.36t3.93,18a34.71,34.71,0,0,0,10.45,11.23q12.79,9,33.3,9t33.18-16.17q10.89-13.82,10.9-33.75t-18.65-63.28Q845,930.11,845,913.21t8.09-29.09Q861.17,871.94,877.9,871.94Z"/><path class="cls-3" d="M948.58,992.22V990a41.28,41.28,0,0,0-1.68-7.64,7.83,7.83,0,0,1,1.9-5.11,5.88,5.88,0,0,1,4.67-2.3q2.74,0,4.54,3.48a16.39,16.39,0,0,1,1.8,7.64q0,4.15-10.56,49.64t-10.55,47.9c0,1.61.74,2.41,2.24,2.41,1,0,2.36-1,4.16-2.86s3.33-2.87,4.6-2.87c2.47,0,3.71,1.56,3.71,4.66s-2.32,5.83-7,8.15-8,3.48-10.11,3.48q-7.86,0-7.86-12.58a18.47,18.47,0,0,1,1.06-5.78,84.57,84.57,0,0,0,2.25-8.88q1.19-5.67,3.37-15.44t4.49-20.21q2.31-10.46,5.62-25.33T948.58,992.22Zm15.84-52.45q6.62,0,6.62,6.63,0,9.66-6.74,10.89a24.37,24.37,0,0,1-4.15.34,6.44,6.44,0,0,1-4.49-2.25,7.81,7.81,0,0,1-2.25-5.78q0-3.54,3.48-6.69A11.06,11.06,0,0,1,964.42,939.77Z"/><path class="cls-3" d="M1083.48,1003.33q0-11.12-6.06-11.11-8.09,0-30.89,46.38-10.33,21-14.43,31.72t-6.12,15.11a28,28,0,0,1-4,6.62,5.75,5.75,0,0,1-4.38,2.25c-1.61,0-2.56-.39-2.86-1.18a13.63,13.63,0,0,1-.45-4.27q0-3.07,9-53t10.45-52.51a9.34,9.34,0,0,1,2.52-3.31,7.94,7.94,0,0,1,4-.73,5.28,5.28,0,0,1,4.54,2.25,7.07,7.07,0,0,1,1.63,4,13.18,13.18,0,0,1-.45,3.43q-.78,3-2.36,7.52-5.38,15.39-10.33,43.58l-2.36,13.59q2.58-5.4,5.84-13t9.66-21.74a152.8,152.8,0,0,1,14.26-25.26q10.11-14.61,18.87-14.6,15.39,0,15.39,24.82a128.9,128.9,0,0,1-2.64,23.24q-2.64,13.93-5.84,30.44a177.9,177.9,0,0,0-3.54,27.29l-1.35,6.17a6.45,6.45,0,0,1-.73,3.54c-.48.71-1.94,1.07-4.38,1.07s-4.19-.45-5.28-1.35-1.44-2.51-1.06-4.83l11.23-67.16A128.32,128.32,0,0,0,1083.48,1003.33Z"/><path class="cls-3" d="M1222.42,980.2q3.7,0,3.71,3.76a20.79,20.79,0,0,1-1.35,7.36q-1.35,3.58-2.86,9.26t-4.33,17.35q-2.8,11.69-5.5,23.64t-5.22,23.87q-2.53,11.91-5,22.91a79.13,79.13,0,0,0,8.48-6.74q4.22-3.81,7.08-6.12t4.88-2.3q4.28,0,4.27,3.82a5.62,5.62,0,0,1-1.91,4.6q-14.26,10.89-24.15,18l-6.62,33.8q-6.74,34.26-17.18,46-8.33,9.21-19.26,9.21a25,25,0,0,1-18.42-7.47q-7.47-7.47-7.47-19.94,0-18,18.53-34.14,7.51-6.51,20.27-15.83t20.05-15.39q1-5.05,2.41-11.06t2.53-11q1.13-4.93,2.24-9.77t2.08-9.21q1-4.38,1.74-7.52-6.18,19.88-12.8,30.1-12.24,18.63-20.72,18.64a16.85,16.85,0,0,1-13.7-6.4q-5.22-6.4-5.22-17.07,0-19.65,7.41-41.61t20.44-37.85q13-15.88,28.52-15.89a27.47,27.47,0,0,1,14,3.59A6.68,6.68,0,0,1,1222.42,980.2Zm-33.8,128.14q-8.43,7-16.68,13.2a174.82,174.82,0,0,0-14.77,12.4q-14.37,13.82-14.37,26.11t5.39,15.56q2.36,1.46,7.19,1.46,9.87,0,16.67-10.73t13.09-39.81Zm-22.07-75.58q-7.12,19.65-7.13,36t8.54,16.34q7.51,0,17.35-14.49T1201,1036q5.9-20.16,8.93-31.34t4.15-15.21a13.28,13.28,0,0,0-8.87-3q-10.21,0-20.89,13.36T1166.55,1032.76Z"/><path class="cls-3" d="M1280.84,1094.3q-13.14,0-13.13-16.51t12.29-40.48a176.23,176.23,0,0,1,28.92-41.44q16.62-17.48,27.12-17.47t12,9.21c.3,1.87.53,3.86.68,5.95a4.32,4.32,0,0,1,2.47-.67q5.28,0,5.28,5.05v.9q0,.35-2.81,10.11t-6.4,32.57q-3.6,22.8-3.6,39c.68.45,1.46,1,2.36,1.51a29.44,29.44,0,0,1,3.37,2.59,5.24,5.24,0,0,1,2,4.1,6.65,6.65,0,0,1-1.46,4.21,5,5,0,0,1-4.15,1.85q-5.51,0-9.94-5.62a19.15,19.15,0,0,1-4.44-12.12q0-14,7.64-48.3a190.81,190.81,0,0,1-24.71,38.53q-15.16,18.52-20.94,22.79A20.65,20.65,0,0,1,1280.84,1094.3Zm-1.68-16.06q0,4.15,3.48,4.16a5.68,5.68,0,0,0,4.16-1.69q23.23-20,41.66-55.36,10.44-20.22,11.06-23.25a26.67,26.67,0,0,0,.62-5.17,7.82,7.82,0,0,0-1.12-4,3.5,3.5,0,0,0-3.15-1.91c-1.34,0-3.33.71-5.95,2.13q-8.64,4.73-21.28,20.11a157.41,157.41,0,0,0-21.06,33.46Q1279.17,1064.77,1279.16,1078.24Z"/><path class="cls-3" d="M1438.43,1009.17q16.39-31.44,35.49-31.44,10,0,14.37,5.89t4.38,17.47a163,163,0,0,1-6.06,43.29q-6.06,22.06-18.14,37.51T1440,1097.33q-6.29,0-10.1-2.69t-6.18-9.1q-5.73,26.06-10.84,51.83T1402.27,1184q-2.25,4.6-6.4,4.61-3.48,0-3.93-4.61,7.41-29.08,11.9-52.56t6.91-36q2.41-12.57,6.85-36.1t14.32-73.62v-5.05a6.12,6.12,0,0,1,2.08-4.33,6.61,6.61,0,0,1,4.82-2.07,4.4,4.4,0,0,1,4,2.13,7.94,7.94,0,0,1,1.29,4.1,16.62,16.62,0,0,1-.34,3.54c-.22,1.05-.49,2.08-.78,3.09s-.61,2-.9,3a13.24,13.24,0,0,0-.56,2.59Zm-9.88,59.64q0,17.63,13,17.63,12.12,0,22.23-15,12.92-19.32,17.07-51.43a123,123,0,0,0,1.24-17.08q0-14.82-7.3-14.82t-17,10.67a113.2,113.2,0,0,0-21.39,35.38Q1428.55,1054.54,1428.55,1068.81Z"/><path class="cls-3" d="M1592,978.18q21.22,0,21.23,32.12,0,25-13.81,53.79-9.33,19.32-22.47,27.85a25.2,25.2,0,0,1-13.92,4.38q-12.69,0-18.19-10.11a44.78,44.78,0,0,1-5.51-21.78,119.61,119.61,0,0,1,7-40.54q7-19.65,19.09-32.68T1592,978.18Zm-30.09,37.17q-12.14,24.25-12.13,47.39,0,16.07,8.87,21.57a11.43,11.43,0,0,0,6.18,1.68q7.18,0,16.06-12.47t14.93-30.71q6.06-18.25,6.07-31.33t-1.52-16.57a11,11,0,0,0-3.48-4.83q-2-1.35-6.52-1.35t-9.93,3.6Q1570,999.07,1561.88,1015.35Z"/><path class="cls-3" d="M1663.76,1093.85l5.16-27.4q4-21,5.51-29.82t3.31-19.43q1.86-10.61,7.58-30.49a2.72,2.72,0,0,1-.22-1v-1.12c0-3.59,1.38-6.18,4.15-7.75a4.81,4.81,0,0,1,2.58-.79c3.22,0,4.83,2.33,4.83,7q0,4-3.25,14.54a194.26,194.26,0,0,0-5.06,19.49q1.58-2.6,3.88-6.52t7.3-11.45a74.85,74.85,0,0,1,12.58-14.32q7.58-6.79,15.49-6.8t12.08,4.27a4.86,4.86,0,0,1,1.57,3.71,5.31,5.31,0,0,1-2,4,6.25,6.25,0,0,1-4.16,1.8,8.18,8.18,0,0,1-4.15-1.18,8.74,8.74,0,0,0-4.5-1.18q-2.46,0-7.86,4-21.45,15.62-35.37,61.88a169.46,169.46,0,0,0-4.49,17q-.79,4.65-1.35,7.58Q1674,1098,1667,1098C1664.84,1098,1663.76,1096.62,1663.76,1093.85Z"/><path class="cls-3" d="M1828.87,1075.43q3.93,0,3.93,4.16,0,4.83-11.79,10.89t-19.66,6.07q-7.86,0-11.79-2.59a19.3,19.3,0,0,1-6.4-7.18q-4.83-9-4.83-21.68a131.08,131.08,0,0,1,6.74-42.34q6.73-19.87,18-33t24.26-13.08a12.62,12.62,0,0,1,11,5.78,23.53,23.53,0,0,1,4,13.65q0,14.72-7.69,24.93a63,63,0,0,1-18.92,16.73,200.21,200.21,0,0,1-25.83,12.36l-.45,16.5q0,19.32,11.68,19.32a28.29,28.29,0,0,0,13.19-3.65q6.91-3.64,9.94-5.28A11.2,11.2,0,0,1,1828.87,1075.43Zm2.81-78.83q0-9-7.53-9-6.74,0-15.83,12.13t-15,32a40.05,40.05,0,0,0-1.69,7.3q4.5-2.47,9.21-4.72t9.21-4.72q10.34-5.73,16-13.42T1831.68,996.6Z"/><rect class="cls-4" x="619.79" y="1399.74" width="425.47" height="17.59"/><rect class="cls-3" x="1045.26" y="1399.74" width="425.47" height="17.59"/><rect class="cls-5" x="1417.44" y="1399.73" width="425.47" height="17.59"/></svg>