<svg id="Calque_1" data-name="Calque 1" xmlns="http://www.w3.org/2000/svg" viewBox="0 0 512 512"><defs><style>.cls-1{fill:#c59635;}.cls-2{fill:#c49135;}</style></defs><title>marker</title><path class="cls-1" d="M314.71,148.8A74.84,74.84,0,0,1,309,134.88c-1.31-4.91-1.61-10.34,0-14.82a24.7,24.7,0,0,1,3.66-6.28,84,84,0,0,1,16.81-17A80.53,80.53,0,0,1,335,114.08a31.94,31.94,0,0,1,.73,9.36c-.54,5-3,9.19-5.65,12.93-3.84,5.51-8.39,10.82-14.31,12.18"/><path class="cls-1" d="M314.16,179.63c0-5.1,0-10.26,1.21-15.21s3.83-9.74,8.05-12.59a27,27,0,0,1,7.43-3.2A108.12,108.12,0,0,1,358.51,144a66,66,0,0,1-3.29,17.93,25.59,25.59,0,0,1-4.26,8.39c-3.31,4-8.32,6-13.21,7.7-7.2,2.44-15.07,4.3-22.32,2"/><path class="cls-1" d="M303.73,221.49c0-5.1,0-10.26,1.21-15.21s3.83-9.74,8.06-12.59a26.76,26.76,0,0,1,7.42-3.2,108.2,108.2,0,0,1,27.66-4.62,65.23,65.23,0,0,1-3.29,17.93,25.59,25.59,0,0,1-4.26,8.39c-3.31,4-8.32,6-13.2,7.7-7.2,2.44-15.08,4.3-22.32,2"/><path class="cls-1" d="M293.34,263.18c0-5.1,0-10.26,1.21-15.21s3.83-9.74,8.06-12.59a26.89,26.89,0,0,1,7.42-3.2,108.2,108.2,0,0,1,27.66-4.62,65.23,65.23,0,0,1-3.29,17.93,25.4,25.4,0,0,1-4.26,8.39c-3.31,4-8.31,6-13.2,7.7-7.2,2.44-15.08,4.3-22.32,2"/><path class="cls-1" d="M282.89,304.94c0-5.1,0-10.26,1.21-15.21s3.82-9.75,8-12.6a27.56,27.56,0,0,1,7.43-3.2,108.12,108.12,0,0,1,27.65-4.62A65.52,65.52,0,0,1,324,287.24a25.33,25.33,0,0,1-4.27,8.39c-3.3,4-8.31,6-13.2,7.7-7.2,2.45-15.07,4.3-22.32,2"/><path class="cls-1" d="M272.42,346.69c0-5.1,0-10.26,1.21-15.21s3.83-9.75,8.06-12.6a27.37,27.37,0,0,1,7.42-3.2,108.2,108.2,0,0,1,27.66-4.62A65.91,65.91,0,0,1,313.48,329a25.5,25.5,0,0,1-4.26,8.39c-3.31,4-8.32,6-13.21,7.7-7.19,2.45-15.07,4.3-22.31,2"/><path class="cls-2" d="M258.93,506.68a788.43,788.43,0,0,1,12-149.88c.35-1.94-7.63-.62-8,1.4a792.39,792.39,0,0,0-12.11,150.65c0,1.4,8.13.18,8.09-2.17Z"/><path class="cls-2" d="M330.54,90.85c.3-4,1.65-7.81,2.67-11.65l1.69-5.73,1.79-5.7c2.46-7.58,5.14-15.09,8.12-22.48s6.22-14.67,9.71-21.82,7.32-14.15,11.37-21l.17.1Q360.18,13,355.12,23.75t-9.46,21.88c-2.89,7.4-5.57,14.88-8,22.45l-1.76,5.69-1.68,5.72-1.57,5.75a33.09,33.09,0,0,1-1.94,5.65Z"/><path class="cls-2" d="M280.52,123.32a39.56,39.56,0,0,1,.72-5.08l1.12-5,1.25-5c.45-1.65.88-3.3,1.36-4.94q2.86-9.82,6.64-19.37c2.51-6.34,5.31-12.58,8.36-18.67s6.43-12,10-17.85l.1.06q-5.25,8.77-9.75,18t-8.27,18.68q-3.71,9.52-6.52,19.35c-.47,1.64-.89,3.29-1.34,4.93l-1.22,5-1.09,5a42.85,42.85,0,0,1-1.25,5Z"/><path class="cls-2" d="M270.2,165.68a80.08,80.08,0,0,1,0-9.92l.23-4.95.31-4.95q.72-9.9,2.07-19.73t3.35-19.54q2-9.72,4.66-19.27l.09,0q-2.53,9.59-4.44,19.31t-3.26,19.54c-.87,6.54-1.54,13.12-2,19.7l-.29,5-.21,4.94-.13,4.95c-.05,1.65-.07,3.3-.28,5Z"/><path class="cls-2" d="M259.22,207.48a82.28,82.28,0,0,1-.72-9.92l-.13-5-.05-5q0-9.94.59-19.87c.4-6.61,1-13.22,1.81-19.79s1.86-13.13,3.09-19.64l.09,0Q262.16,138.12,261,148t-1.73,19.78q-.57,9.91-.51,19.85l.07,5,.15,5,.22,4.95a48.48,48.48,0,0,1,.08,5Z"/><path class="cls-2" d="M248.43,249.28a96.42,96.42,0,0,1-.81-9.9c-.15-3.31-.27-6.61-.35-9.93q-.24-9.93,0-19.86a394.55,394.55,0,0,1,3-39.61h.08q-2.22,19.74-2.69,39.61-.22,9.92,0,19.84.15,5,.39,9.92l.29,4.95c.1,1.66.21,3.31.15,5Z"/><path class="cls-2" d="M237.43,291.63a39.32,39.32,0,0,1-1.2-4.87l-.79-4.95-.67-5-.54-5a199.72,199.72,0,0,1-.89-20,196.64,196.64,0,0,1,1.12-20c.73-6.63,1.8-13.23,3.19-19.76l.12,0a199.73,199.73,0,0,0-2.91,19.78,195.55,195.55,0,0,0-1,20,198.48,198.48,0,0,0,1,20l.57,5,.69,4.95.81,4.93a37.39,37.39,0,0,1,.65,5Z"/><path class="cls-2" d="M360.72,141.86a45.32,45.32,0,0,1,2-4.57l2.12-4.5,2-4.54,1.94-4.58q3.78-9.19,6.86-18.67t5.42-19.14q2.39-9.66,4.07-19.48l.11,0q-1.56,9.84-3.84,19.54t-5.35,19.19q-3,9.5-6.79,18.74l-1.92,4.6-2,4.56-2.11,4.51a42.43,42.43,0,0,1-2.42,4.37Z"/><path class="cls-2" d="M351,183.11a42.64,42.64,0,0,1,2.52-4.29l2.65-4.21,2.57-4.26,2.48-4.31q4.88-8.67,9.08-17.69T378,130q3.54-9.3,6.41-18.84l.1,0q-2.75,9.57-6.18,18.93t-7.65,18.4q-4.17,9-9,17.77l-2.47,4.32-2.56,4.28L354,179.13a44.77,44.77,0,0,1-2.94,4Z"/><path class="cls-2" d="M340.16,225.81a43.37,43.37,0,0,1,2.75-4.16l2.87-4.06,2.78-4.12,2.71-4.17q5.33-8.4,10-17.2t8.67-17.91q4-9.09,7.39-18.47l.1,0q-3.24,9.42-7.17,18.58t-8.6,18q-4.63,8.82-9.94,17.27l-2.69,4.2-2.78,4.14L343.39,222a45.09,45.09,0,0,1-3.14,3.88Z"/><path class="cls-2" d="M329.94,267.8a43.51,43.51,0,0,1,3-4l3.08-3.91,3-4,2.91-4q5.76-8.11,10.89-16.65t9.59-17.43q4.5-8.88,8.35-18.06l.09,0Q367.09,209,362.68,218t-9.53,17.49q-5.08,8.57-10.83,16.73l-2.91,4.05-3,4-3.07,3.92a41.89,41.89,0,0,1-3.34,3.71Z"/><path class="cls-2" d="M319.9,309.26a43.4,43.4,0,0,1,3.16-3.85l3.28-3.74,3.2-3.8,3.12-3.87q6.18-7.8,11.74-16.06T354.89,261q5-8.63,9.29-17.6l.09,0q-4.22,9-9.07,17.73t-10.43,17q-5.53,8.28-11.7,16.13L330,298.21,326.77,302l-3.27,3.76a43.55,43.55,0,0,1-3.53,3.53Z"/><path class="cls-1" d="M261.89,346.78c2.37-4.51,4.76-9.08,6-14s1.11-10.41-1.32-14.9a27.56,27.56,0,0,0-5.09-6.27,108.38,108.38,0,0,0-22.38-16.89,65.15,65.15,0,0,0-5.39,17.41,25.46,25.46,0,0,0-.1,9.41c1.09,5,4.57,9.21,8.13,12.94,5.25,5.5,11.38,10.79,18.86,12.1"/><path class="cls-1" d="M272.33,305c2.37-4.52,4.76-9.09,6-14.05S279.41,280.49,277,276a27.44,27.44,0,0,0-5.1-6.28,108.38,108.38,0,0,0-22.38-16.89,65.37,65.37,0,0,0-5.39,17.41,25.46,25.46,0,0,0-.1,9.41c1.09,5,4.57,9.21,8.14,12.94,5.24,5.5,11.37,10.79,18.85,12.1"/><path class="cls-1" d="M282.74,263.15c2.37-4.51,4.76-9.09,6-14s1.12-10.41-1.31-14.9a27.39,27.39,0,0,0-5.1-6.27,108,108,0,0,0-22.38-16.89,65.13,65.13,0,0,0-5.38,17.41,25.24,25.24,0,0,0-.11,9.41c1.1,5,4.57,9.2,8.14,12.94,5.25,5.5,11.37,10.79,18.86,12.1"/><path class="cls-1" d="M293.23,221.55c2.37-4.51,4.76-9.08,6-14s1.12-10.41-1.31-14.9a27.6,27.6,0,0,0-5.1-6.27,108.38,108.38,0,0,0-22.38-16.89A65.13,65.13,0,0,0,265,186.86a25.25,25.25,0,0,0-.11,9.41c1.1,5,4.57,9.21,8.14,12.94,5.25,5.5,11.37,10.79,18.86,12.1"/><path class="cls-1" d="M303.54,179.77c2.37-4.51,4.76-9.08,6-14s1.12-10.41-1.31-14.9a27.6,27.6,0,0,0-5.1-6.27,108.38,108.38,0,0,0-22.38-16.89,65.13,65.13,0,0,0-5.38,17.41,25.25,25.25,0,0,0-.11,9.41c1.09,5,4.57,9.21,8.14,12.94,5.25,5.5,11.37,10.79,18.86,12.1"/></svg>