<svg id="Capa_1" enable-background="new 0 0 511.708 511.708" height="512" viewBox="0 0 511.708 511.708" width="512" xmlns="http://www.w3.org/2000/svg"><path d="m424.119 492.578c-8.284 0-15-6.716-15-15v-27.615c0-8.284 6.716-15 15-15s15 6.716 15 15v27.615c0 8.284-6.716 15-15 15z" fill="#f92f3e"/><path d="m350.134 453.157c-8.284 0-15-6.716-15-15v-86.862c0-8.284 6.716-15 15-15s15 6.716 15 15v86.862c0 8.285-6.716 15-15 15z" fill="#f92f3e"/><path d="m199.954 479.09c-5.147 0-10.273-1.272-14.822-3.68-1.821-.963-45.251-24.05-89.162-58.731-64.001-50.548-96.289-99.853-95.968-146.547.219-31.642 12.559-61.362 34.746-83.684 22.318-22.456 52.017-34.823 83.623-34.823 30.313 0 59.727 12.041 81.583 32.85 21.857-20.809 51.271-32.85 81.583-32.85 31.863 0 61.771 12.489 84.214 35.167 22.242 22.474 34.372 52.228 34.155 83.779-.321 46.492-32.747 95.638-96.378 146.074-43.746 34.677-86.859 57.76-88.673 58.726-4.568 2.432-9.722 3.719-14.901 3.719z" fill="#fb9d9b"/><path d="m365.751 186.792c-22.443-22.678-52.351-35.167-84.214-35.167-30.312 0-59.725 12.041-81.583 32.85v294.615c5.179 0 10.333-1.287 14.901-3.72 1.813-.966 44.927-24.048 88.673-58.726 63.631-50.435 96.057-99.582 96.378-146.074.217-31.551-11.912-61.304-34.155-83.778z" fill="#fa676d"/><path d="m236.964 272.661c-5.858 5.858-5.858 15.355 0 21.213 2.929 2.929 6.768 4.394 10.606 4.394 3.839 0 7.678-1.464 10.607-4.394l142.772-142.772-21.213-21.213z" fill="#efebe9"/><path d="m507.314 23.524c-5.857-5.858-15.355-5.858-21.213 0l-111.517 111.516 21.213 21.213 111.517-111.516c5.858-5.858 5.858-15.355 0-21.213z" fill="#68544f"/><path d="m411.67 165.912c-3.839 0-7.678-1.464-10.606-4.393l-31.745-31.744c-5.858-5.858-5.858-15.355 0-21.213 5.857-5.858 15.355-5.858 21.213-.001l31.745 31.744c5.858 5.858 5.858 15.355 0 21.213-2.929 2.93-6.768 4.394-10.607 4.394z" fill="#53433f"/><path d="m463.912 113.671c-3.839 0-7.678-1.464-10.606-4.394l-31.744-31.744c-5.858-5.858-5.858-15.355 0-21.213 5.857-5.858 15.355-5.858 21.213 0l31.744 31.744c5.858 5.858 5.858 15.355 0 21.213-2.93 2.929-6.769 4.394-10.607 4.394z" fill="#7d655c"/><path d="m266.995 314.297c-11.548 0-22.769-4.193-32.205-12.151-10.832-9.136-18.034-22.261-20.279-36.957-1.251-8.189 4.374-15.842 12.563-17.093 8.191-1.251 15.842 4.374 17.093 12.563 1.148 7.513 4.687 14.102 9.964 18.553 4.699 3.964 10.246 5.692 15.617 4.873 8.179-1.25 15.842 4.374 17.093 12.563 1.251 8.19-4.374 15.842-12.563 17.093-2.432.372-4.866.556-7.283.556z" fill="#f92f3e"/></svg>